<svg width="2500" height="1396" viewBox="0 0 2500 1396" fill="none" xmlns="http://www.w3.org/2000/svg"><g clip-path="url(#a)" fill="#fff"><path d="M.11 1396h2499.78V0H.11v1396zM122.606 122.459H2377.43V1273.5H122.607V122.459z"/><path d="M1351.71 409.981s-97.2 366.615-105.23 405.74l-105.99-405.778H939.82v562.741h131.36V558.996l114.71 413.688h121.23s111.95-400.697 114.71-412.847v412.847h131.85V409.981h-202.01.04zM869.516 883.007V589.716c0-59.759-1.147-111.761-66.484-151.575-48.678-28.848-112.831-35.458-165.979-35.458-35.382 0-167.164 0-220.313 96.287-17.308 31.293-19.868 54.218-21.97 81.041h-.076.076v.114l136.024-.114c.229-12.418 1.834-25.065 13.258-38.973 13.221-17.767 43.1-35.535 98.503-35.535 109.201 0 93.077 110.118 93.077 110.118s-54.562.765-170.603 15.017c-53.645 6.648-138.354 27.625-178.244 107.367a168.31 168.31 0 0 0-17.691 75.348c0 95.14 75.271 172.627 200.367 172.627 76.342 0 135.069-31.981 163.84-56.473 0 7.757 2.216 29.918 3.362 43.177h135.031c-2.178-89.677-2.178-47.532-2.178-89.677zM736.74 757.95c0 16.659 0 33.165-7.795 49.748-14.366 33.241-62.013 64.229-129.566 64.229-53.187 0-89.676-22.085-89.676-65.261 0-58.765 55.02-71.833 102.743-77.755 59.721-7.451 124.294-9.705 124.294-9.705v38.744zm1400.09-3.821l-128.84.305c-3.82 15.513-30.68 116.996-131.06 116.996-1.49 0-17.65 0-19.06-.076-73.82-2.331-134.39-63.656-134.39-184.779 0-92.885 46.85-176.525 135.45-178.512h18c91.82 0 123.99 96.058 125.75 101.904l128.76.382c-24.91-119.976-118.71-217.906-260.93-217.906-159.33 0-272.58 131.439-272.58 298.03 0 190.471 120.36 298.908 269.45 298.908 165.98 0 252.02-126.892 269.41-235.252"/></g><defs><clipPath id="a"><path fill="#fff" d="M0 0h2500v1396H0z"/></clipPath></defs></svg>