<svg xmlns="http://www.w3.org/2000/svg" width="462" height="164" viewBox="0 0 462 164"><path fill="#fff" d="M197.259 76.218h9.708v36.19c0 7.035 3.294 10.759 7.932 10.759h24.143v7.599H217.84c-10.329 0-20.677-6.307-20.677-21.696-.001-17.328.096-32.852.096-32.852m75.795 46.716h-17.396c-3.366 0-7.723-1.883-7.723-9.398v-9.812h25.063c5.085 0 7.599 4.672 7.599 8.107v2.748c0 4.15-1.635 8.355-7.543 8.355m-35.033-46.551v33.029c0 11.735 7.585 21.052 20.069 21.052h12.524c26.046 0 26.252-34.366-.57-34.366h-22.219V76.479l-9.804-.096z"/><path fill="#fff" d="M294.544 79.557v51.401h9.805V79.557c0-4.294-9.805-4.28-9.805 0m-139.858 43.555h17.39c3.37 0 7.726-2.433 7.726-9.413v-9.934h-24.799c-5.088 0-7.867 4.383-7.867 8.245v2.762c-.001 4.135 1.631 8.34 7.55 8.34m-10.855-46.743h23.84c13.501 0 21.896 9.165 21.896 21.79v10.718c0 12.683-7.008 21.793-21.093 21.793h-11.298c-25.703 0-26.665-34.339.711-34.339h21.865v-3.504c0-3.926-2.611-7.266-7.338-7.266H143.83v-9.192zm223.636 46.743h17.396c3.366 0 7.736-2.433 7.736-9.413v-9.934h-24.803c-5.098 0-7.874 4.383-7.874 8.245v2.762c.001 4.135 1.637 8.34 7.545 8.34m-10.856-46.743h23.854c13.494 0 21.89 9.165 21.89 21.79v10.718c0 12.683-7.008 21.793-21.093 21.793H369.96c-25.702 0-26.664-34.339.708-34.339h21.868v-3.504c0-3.926-2.61-7.266-7.338-7.266H356.61v-9.192zm-52.139-6.63a3.926 3.926 0 0 1-3.923 3.923h-2.205a3.926 3.926 0 0 1-3.923-3.923v-1.944a3.926 3.926 0 0 1 3.923-3.923h2.205a3.926 3.926 0 0 1 3.923 3.923v1.944zm8.718 28.172c0-15.393 10.347-21.693 20.68-21.693h17.396v9.434h-20.474c-4.816 0-7.791 3.823-7.791 8.921v36.193h-9.715c.001 0-.096-15.528-.096-32.855m96.338-21.762h9.7v36.19c0 7.035 3.298 10.759 7.929 10.759h24.149v7.599h-21.209c-10.319 0-20.673-6.307-20.673-21.697.001-17.327.104-32.851.104-32.851"/><path fill="#585858" d="M109.403 12c-.825 0-1.652.041-2.491.124-2.59.254-11.356.983-21.717 7.792C64.896 32.838 48.342 43.433 28.04 56.355c6.452 6.521 12.903 13.054 19.354 19.574C65.961 64.173 84.525 52.411 103.1 40.67c12.199-8.354 20.958-10.498 26.86-10.498 6.156 0 9.21 2.336 9.801 2.418-3.167-3.078-10.982-10.333-15.822-14.868C119.787 13.841 114.82 12 109.403 12m12.768 37.354c-4.854 0-11.515 4.741-14.764 7.118-4.751 3.483-45.016 29.392-57.918 37.907-3.734-3.215-5.565-4.974-6.297-5.582-14.785 14.72-20.478 25.974-22.717 36.54-2.319 10.924 4.483 15.651 7.135 18.798 5.101 6.073 14.695 14.758 14.768 14.758.007 0-.086-.097-.295-.288-4.026-13.617.378-24.981 6.197-33.83 11.721-17.836 36.5-32.91 55.503-45.953 13.937-9.55 21.188-14.421 23.851-16.16 1.263-10.154-1.502-13.308-5.463-13.308"/><path fill="#585858" d="M126.943 76.266c-20.282 14.651-45.84 29.395-55.901 39.014-10.062 9.618-11.251 16.97-10.172 24.856.478 3.463 2.15 6.953 5.901 6.953 1.202 0 2.618-.357 4.271-1.195 4.04-2.047 16.004-10.814 37.808-25.984 21.428-14.922 17.54-31.689 18.093-43.644"/></svg>