<svg width="343" height="115" viewBox="0 0 343 115" fill="none" xmlns="http://www.w3.org/2000/svg"><mask id="a" style="mask-type:alpha" maskUnits="userSpaceOnUse" x="0" y="0" width="343" height="115"><path fill="#C4C4C4" d="M0 0h343v115H0z"/></mask><g mask="url(#a)"><path d="M165.609 58.1v.305c-.185 3.857-1.607 6.976-5.152 8.72-5.416 2.636-12.939.088-13.751-7.523-.353-3.383.426-6.43 3.046-8.736 2.902-2.548 6.325-2.966 9.878-1.688 3.552 1.278 5.264 3.89 5.826 7.442.081.515.113 1.03.153 1.48zm3.858 13.662V34.398h-3.858v14.218a12.91 12.91 0 0 0-2.307-1.712 14.24 14.24 0 0 0-9.065-1.752 12.54 12.54 0 0 0-8.174 4.018c-2.676 2.95-3.544 6.494-3.255 10.368a12.685 12.685 0 0 0 3.537 8.117c4.018 4.107 11.195 5.128 16.451 2.283a13.106 13.106 0 0 0 2.813-2.018v3.818h3.858v.024z" fill="#fff" stroke="#fff" stroke-width="1.25" stroke-miterlimit="10"/><path d="M210.983 57.955c-.056 4.468-1.398 8.1-4.774 10.793a13.66 13.66 0 0 1-9.933 2.749 12.789 12.789 0 0 1-8.214-3.593 12.64 12.64 0 0 1-3.753-8.382c-.29-3.85.57-7.386 3.215-10.336a12.543 12.543 0 0 1 8.229-4.018 14.247 14.247 0 0 1 8.945 1.671 12.051 12.051 0 0 1 6.108 9.347c.097.684.121 1.375.153 1.809l.024-.04zm-3.866.289c-.04-.45-.072-1.013-.152-1.567-.547-3.593-2.411-6.27-5.851-7.507-3.617-1.286-7.064-.804-9.974 1.808-2.523 2.29-3.279 5.289-2.933 8.6.803 7.755 8.519 10.287 13.944 7.482 3.496-1.8 4.822-4.942 4.966-8.84" fill="#fff"/><path d="M207.117 58.244c-.04-.45-.072-1.013-.152-1.567-.547-3.593-2.411-6.27-5.851-7.507-3.617-1.286-7.064-.804-9.974 1.808-2.523 2.29-3.279 5.289-2.933 8.6.803 7.755 8.519 10.287 13.944 7.482 3.496-1.8 4.822-4.942 4.966-8.84v.024zm3.866-.29c-.056 4.469-1.398 8.102-4.774 10.794a13.66 13.66 0 0 1-9.933 2.749 12.789 12.789 0 0 1-8.214-3.593 12.64 12.64 0 0 1-3.753-8.382c-.29-3.85.57-7.386 3.215-10.336a12.543 12.543 0 0 1 8.229-4.018 14.247 14.247 0 0 1 8.945 1.671 12.051 12.051 0 0 1 6.108 9.347c.097.684.121 1.375.153 1.809l.024-.04z" stroke="#fff" stroke-width="1.25" stroke-miterlimit="10"/><path d="M180.179 71.754h-3.858v-26.37h3.85l.008 26.37z" fill="#fff" stroke="#fff" stroke-width="1.25" stroke-miterlimit="10"/><path d="M175.581 37.838a2.535 2.535 0 0 1 .7-1.937 2.547 2.547 0 0 1 1.904-.788 2.593 2.593 0 0 1 1.864.82 2.6 2.6 0 0 1 .699 1.913 2.539 2.539 0 0 1-.72 1.933 2.547 2.547 0 0 1-1.916.767 2.492 2.492 0 0 1-2.531-2.708" fill="#fff"/><path d="M175.581 37.838a2.535 2.535 0 0 1 .7-1.937 2.547 2.547 0 0 1 1.904-.788 2.593 2.593 0 0 1 1.864.82 2.6 2.6 0 0 1 .699 1.913 2.539 2.539 0 0 1-.72 1.933 2.547 2.547 0 0 1-1.916.767 2.492 2.492 0 0 1-2.531-2.708" stroke="#fff" stroke-width="1.25" stroke-miterlimit="10"/><path d="M265.595 58.164c-.152 5.192-2.057 9.299-6.678 11.806-5.257 2.845-12.45 1.824-16.452-2.29a12.678 12.678 0 0 1-3.528-8.15c-.289-3.874.579-7.434 3.215-10.384a12.563 12.563 0 0 1 8.181-4.018 14.217 14.217 0 0 1 9.058 1.728 12.055 12.055 0 0 1 6.003 9.274c.097.708.121 1.423.169 2.034h.032zm-3.89 0c-.048-.482-.072-1.045-.16-1.608-.555-3.56-2.411-6.212-5.819-7.45-3.56-1.286-6.984-.86-9.885 1.696-2.62 2.299-3.4 5.353-3.038 8.744.803 7.627 8.334 10.183 13.743 7.53 3.64-1.775 5.015-4.966 5.159-8.92" fill="#fff"/><path d="M261.705 58.164c-.048-.482-.072-1.045-.16-1.608-.555-3.56-2.411-6.212-5.819-7.45-3.56-1.286-6.984-.86-9.885 1.696-2.62 2.299-3.4 5.353-3.038 8.744.803 7.627 8.334 10.183 13.743 7.53 3.64-1.775 5.015-4.966 5.159-8.92v.008zm3.89 0c-.152 5.192-2.057 9.299-6.678 11.806-5.257 2.845-12.45 1.824-16.452-2.29a12.678 12.678 0 0 1-3.528-8.15c-.289-3.874.579-7.434 3.215-10.384a12.563 12.563 0 0 1 8.181-4.018 14.217 14.217 0 0 1 9.058 1.728 12.055 12.055 0 0 1 6.003 9.274c.097.708.121 1.423.169 2.034h.032z" stroke="#fff" stroke-width="1.25" stroke-miterlimit="10"/><path d="M106.168 58.573v.097c-.185 3.866-1.608 6.984-5.152 8.736-5.417 2.644-12.94.088-13.75-7.539-.363-3.383.425-6.43 3.045-8.744 2.901-2.555 6.325-2.973 9.877-1.696 3.553 1.278 5.265 3.89 5.827 7.459.089.546.113 1.109.161 1.607a.39.39 0 0 1 0 .096l-.008-.016zm3.866.017v-.113c-.049-.619-.073-1.334-.169-2.041a12.053 12.053 0 0 0-5.996-9.275 14.225 14.225 0 0 0-9.033-1.744 12.562 12.562 0 0 0-8.182 4.018c-2.676 2.958-3.544 6.51-3.215 10.392a12.684 12.684 0 0 0 3.537 8.142c4.018 4.122 11.195 5.143 16.451 2.29a13.318 13.318 0 0 0 2.813-2.025v3.44h3.858l-.064-13.085zm180.265-.49v.305c-.184 3.857-1.607 6.976-5.151 8.72-5.417 2.636-12.94.088-13.751-7.523-.354-3.383.426-6.43 3.046-8.736 2.901-2.548 6.325-2.966 9.877-1.688 3.552 1.278 5.264 3.89 5.827 7.442.08.515.112 1.03.152 1.48zm3.874 13.662l-.024-37.364h-3.858v14.218a12.625 12.625 0 0 0-2.306-1.712 14.235 14.235 0 0 0-9.058-1.752 12.554 12.554 0 0 0-8.173 4.018c-2.677 2.95-3.545 6.494-3.255 10.368a12.684 12.684 0 0 0 3.536 8.117c4.018 4.107 11.195 5.128 16.452 2.283a13.097 13.097 0 0 0 2.812-2.018v3.77l3.874.072z" fill="#fff" stroke="#fff" stroke-width="1.25" stroke-miterlimit="10"/><path d="M226.326 48.367c-5.417 0-9.29 3.97-9.29 9.724 0 5.755 3.873 9.765 9.29 9.765 3.432 0 6.261-1.19 8.101-3.375l2.235 2.282c-2.339 2.83-5.964 4.517-10.489 4.517-7.594 0-12.963-5.409-12.963-13.189s5.393-13.172 12.963-13.172c4.228 0 7.708 1.439 10.087 3.874l-2.13 2.676a10.887 10.887 0 0 0-7.804-3.102z" fill="#fff"/><path d="M226.326 48.367c-5.417 0-9.29 3.97-9.29 9.724 0 5.755 3.873 9.765 9.29 9.765 3.432 0 6.261-1.19 8.101-3.375l2.235 2.282c-2.339 2.83-5.964 4.517-10.489 4.517-7.594 0-12.963-5.409-12.963-13.189s5.393-13.172 12.963-13.172c4.228 0 7.708 1.439 10.087 3.874l-2.13 2.676a10.887 10.887 0 0 0-7.804-3.102" stroke="#fff" stroke-width="1.25" stroke-miterlimit="10"/><path d="M139.038 46.88v24.842h-3.882v-3.488c-2.323 2.194-5.216 3.592-9.942 3.64-6.116 0-9.797-3.881-9.797-10.19V46.88h3.882v13.807c0 4.678 2.291 7.7 6.816 7.7 5.424-.097 9.041-4.316 9.041-9.982V46.88h3.882zm183.179 13.004h-21.699c.65 5.248 4.436 8.671 9.644 8.671a11.111 11.111 0 0 0 8.213-3.375l2.17 2.266a14.098 14.098 0 0 1-10.689 4.389c-7.82 0-13.212-5.498-13.212-13.414 0-7.916 5.441-13.365 13.164-13.414 8.567 0 12.811 5.9 12.401 14.877h.008zm-3.536-3.127c-.249-5.143-3.681-8.47-8.841-8.47-5.159 0-8.752 3.294-9.306 8.47h18.147z" fill="#fff" stroke="#fff" stroke-width="1.25" stroke-miterlimit="10"/><path d="M333.532 48.286c-2.942 0-5.184 1.045-5.184 3.529 0 5.907 14.651 2.885 14.651 12.272 0 5.111-4.581 7.402-9.644 7.402a14.826 14.826 0 0 1-10.062-3.681l1.495-2.829a13.31 13.31 0 0 0 8.744 3.327c3.094 0 5.626-1.19 5.626-3.825.144-6.357-14.555-3.127-14.507-12.369 0-4.967 4.34-7.105 9.122-7.105a15.594 15.594 0 0 1 8.375 2.412l-1.495 2.973a13.907 13.907 0 0 0-7.121-2.106z" fill="#fff"/><path d="M333.532 48.286c-2.942 0-5.184 1.045-5.184 3.529 0 5.907 14.651 2.885 14.651 12.272 0 5.111-4.581 7.402-9.644 7.402a14.826 14.826 0 0 1-10.062-3.681l1.495-2.829a13.31 13.31 0 0 0 8.744 3.327c3.094 0 5.626-1.19 5.626-3.825.144-6.357-14.555-3.127-14.507-12.369 0-4.967 4.34-7.105 9.122-7.105a15.594 15.594 0 0 1 8.375 2.412l-1.495 2.973a13.907 13.907 0 0 0-7.121-2.106" stroke="#fff" stroke-width="1.25" stroke-miterlimit="10"/><path d="M42.533 41.342s5.964-5.987 17.11-5.987a20.84 20.84 0 0 1 18.052 9.797l-8.76 6.43s-2.412-4.943-9.524-4.943c-4.702 0-8.986 2.588-10.055 6.79-2.025-8.124-6.823-12.087-6.823-12.087zm13.525 29.383c.016 2.059.287 4.107.803 6.1a30.308 30.308 0 0 0 1.945 5.297s13.599.803 19.466-10.143l-8.97-5.931s-3.536 7.924-13.244 4.71" fill="#32A2DB"/><path d="M54.578 70.412c-4.267-2.154-6.083-7.233-6.083-11.364 0-12.86-10.055-23.307-24.167-23.307C10.552 35.717 0 43.255 0 59.859 0 81.39 25.605 88.262 40.602 76.57a24.296 24.296 0 0 1-6.14-12.418c-3.753 9.83-16.178 9.845-19.859 2.25-3.858-7.956-1.47-19.208 9.644-19.208 7.86 0 10.882 6.052 10.882 11.252 0 12.763 8.704 23.685 21.869 23.685a34.346 34.346 0 0 1-1.865-5.715 30.892 30.892 0 0 1-.555-6.003z" fill="#585858"/></g></svg>