<svg width="343" height="115" viewBox="0 0 343 115" fill="none" xmlns="http://www.w3.org/2000/svg"><mask id="a" style="mask-type:alpha" maskUnits="userSpaceOnUse" x="0" y="0" width="343" height="115"><path fill="#C4C4C4" d="M0 0h343v115H0z"/></mask><g mask="url(#a)" fill="#fff"><path d="M100.513 21L78.195 66.192 55.872 21h-7.76l26.37 53.35h7.426L108.272 21h-7.759zm96.025 0l-22.323 45.192L151.898 21h-7.76l26.37 53.35-9.877 20.37h7.56L204.297 21h-7.759zM26.37 21L0 74.35h7.76l4.31-8.727h26.517L35.89 59.41H15.14l14.944-30.247L52.412 74.35h7.754L33.796 21H26.37zm200.643 0h-7.431l-26.363 53.35h7.764l4.306-8.727h26.517l-2.698-6.212h-20.751l14.944-30.247 22.318 45.186h7.759L227.013 21z"/><path fill-rule="evenodd" clip-rule="evenodd" d="M96.419 74.35L122.789 21h7.42l26.37 53.35h-7.76l-22.317-45.186-14.945 30.247h20.746l2.698 6.212H108.49l-4.311 8.727h-7.76zm100.12 15.003c-.305-1.002-1.067-1.337-2.076-1.337-1.538 0-2.434.85-2.434 2.334 0 1.485.891 2.323 2.434 2.323 1.102 0 1.946-.598 2.076-1.548h2.575c-.459 2.692-2.382 3.302-4.863 3.302-2.862 0-4.803-1.22-4.803-4.082 0-2.863 2.011-4.077 5.015-4.077 1.929 0 4.176.581 4.651 3.085h-2.575zm5.108.986c0-2.862 2.012-4.076 5.015-4.076 3.003 0 5.015 1.214 5.015 4.076 0 2.862-2.018 4.082-5.015 4.082s-5.015-1.22-5.015-4.082zm2.581.006c0 1.484.885 2.322 2.434 2.322 1.543 0 2.44-.838 2.44-2.322s-.897-2.323-2.44-2.323c-1.549 0-2.434.839-2.434 2.323zm19.475-3.661a3.767 3.767 0 0 1 1.738-.333c1.526 0 3.01.645 3.022 2.645v5.15h-2.493v-4.564c0-1.014-.81-1.302-1.531-1.302-1.032 0-1.883.57-1.883 1.76v4.105h-2.492v-4.563c0-1.014-.815-1.302-1.502-1.302-1.068 0-1.912.57-1.912 1.76v4.105h-2.499V86.55h2.406v1.103h.034c.446-.645 1.636-1.302 3.097-1.302 1.443 0 2.24.563 2.622 1.425a3.75 3.75 0 0 1 1.393-1.091zm17.11 0a3.767 3.767 0 0 1 1.738-.333c1.53 0 3.015.645 3.02 2.645v5.15h-2.492v-4.564c0-1.014-.81-1.302-1.53-1.302-1.033 0-1.884.57-1.884 1.76v4.105h-2.493v-4.563c0-1.014-.815-1.302-1.507-1.302-1.061 0-1.911.57-1.911 1.76v4.105h-2.493V86.55h2.404v1.103h.035c.446-.645 1.637-1.302 3.097-1.302 1.443 0 2.241.563 2.622 1.425.371-.47.849-.844 1.394-1.091zm13.533 5.813c1.35 0 2.111-.75 2.111-2.158v-3.8h2.493v7.595h-2.41v-1.027h-.024c-.457.646-1.648 1.314-3.102 1.314-1.291 0-3.262-.498-3.262-2.733v-5.15h2.493v4.388c0 1.061.557 1.571 1.701 1.571zm10.446-4.844c.446-.645 1.636-1.302 3.102-1.302 1.285 0 3.25.498 3.255 2.745v5.05h-2.498V89.84c0-1.05-.551-1.56-1.665-1.56-1.162 0-2.141.58-2.141 2.193v3.671h-2.493V86.55h2.404v1.103h.036zm13.437 6.487h-2.499v-7.596h2.499v7.596zm0-8.523h-2.499v-1.76h2.499v1.76zm10.13 3.737c-.299-1.003-1.063-1.338-2.07-1.338-1.549 0-2.441.85-2.441 2.335 0 1.484.892 2.322 2.441 2.322 1.102 0 1.946-.598 2.07-1.548h2.574c-.452 2.692-2.375 3.302-4.856 3.302-2.862 0-4.81-1.22-4.81-4.082s2.012-4.076 5.022-4.076c1.928 0 4.181.58 4.644 3.085h-2.574zm9.982-3.091c3.572 0 4.335 1.155 4.335 2.575h-.007v3.765a3.59 3.59 0 0 0 .288 1.53h-2.498a3.252 3.252 0 0 1-.17-.809c-.851.857-2.441 1.097-3.561 1.097-1.976 0-3.361-.698-3.361-2.47 0-1.835 1.625-2.234 3.138-2.333l2.657-.182c.768-.059 1.021-.188 1.021-.798 0-.598-.516-.903-1.959-.903-1.068 0-1.613.082-1.965 1.132h-2.41c.299-2.34 2.452-2.604 4.492-2.604zm-.733 6.686c1.256 0 2.664-.616 2.664-1.889v-.627c-.47.194-.971.307-1.479.334l-1.443.123c-.88.065-1.325.31-1.325.991 0 .68.646 1.068 1.583 1.068zm12.122-4.733v3.542c0 .593.183.792.828.792a15.9 15.9 0 0 0 1.045-.042l.174-.01v1.665c-.468.059-1.402.14-1.952.14-2.364 0-2.593-.873-2.593-2.245v-3.842h-1.578v-1.672h1.578v-2.346h2.498v2.346h2.013v1.672h-2.013zm8.535-2.599h-2.488v-1.76h2.488v1.76zm0 8.523h-2.488v-7.596h2.488v7.596zm3.056-3.801c0-2.862 2.006-4.076 5.015-4.076 2.997 0 5.008 1.214 5.008 4.076 0 2.862-2.006 4.082-5.008 4.082-3.004 0-5.015-1.22-5.015-4.082zm2.575.006c0 1.484.892 2.322 2.44 2.322 1.537 0 2.434-.838 2.434-2.322s-.892-2.323-2.434-2.323c-1.548 0-2.44.839-2.44 2.323z"/><path d="M339.739 86.35c-1.461 0-2.651.657-3.097 1.303h-.035V86.55h-2.405v7.596h2.499v-3.672c0-1.613.973-2.194 2.134-2.194 1.115 0 1.673.51 1.673 1.56v4.306h2.493v-5.05c-.007-2.247-1.972-2.745-3.262-2.745z"/></g></svg>