<svg width="2500" height="2500" viewBox="0 0 2500 2500" fill="none" xmlns="http://www.w3.org/2000/svg"><path fill-rule="evenodd" clip-rule="evenodd" d="M389.924 1442.25H307.45l37.495-172.7h7.484l37.495 172.7zm-119.218 134.8h155.171l18.754 70.59h217.438l-201.654-566.6H233.211l-196.453 566.6h217.451l16.497-70.59zm729.604-84.23h-5.994l-78.818 154.82H681.303l198.165-301.31-177.893-265.29h231.938l59.285 127.02h4.488l57.044-127.02h231.91l-177.13 265.29 201.93 301.31h-234.2l-76.53-154.82zm614.22 163.64c-107.96 0-138.66-50.95-138.66-162.47V1130.8h-134.16v-48.17h134.16V903.033l60.19-16.498v196.105h178.54v48.17h-178.54v329.04c0 113.86 19.33 142.29 93.23 142.29 29.61 0 60.31-4.54 85.31-11.37v55.5c-28.43 5.65-65.95 10.19-100.07 10.19zm564.24-374.33H1860c15.94-97.85 78.58-161.58 166.19-161.58 96.78 0 154.86 67.13 152.58 161.58zm65.93 15.78c0-118.21-61.39-224.05-213.97-224.05-151.36 0-241 125.21-241 292.96 0 197.26 87.33 289.48 254.71 289.48 70.54 0 130.89-12.59 179.8-33.13l-5.68-55.71c-39.79 20.39-103.58 36.28-163.88 36.28-135.46 0-208.32-78.22-200.37-273.16h389.25c1.14-14.65 1.14-25.93 1.14-32.67zm218.55 349.73h-60.2V897.145l-98.94-11.401v-30.31l159.14-11.88v804.086z" fill="#fff"/></svg>