<svg width="343" height="115" viewBox="0 0 343 115" fill="none" xmlns="http://www.w3.org/2000/svg"><mask id="a" style="mask-type:alpha" maskUnits="userSpaceOnUse" x="0" y="0" width="343" height="115"><path fill="#C4C4C4" d="M0 0h343v115H0z"/></mask><g mask="url(#a)"><path d="M316.524 24.338c-15.756-1.77-33.56 3.542-46.891 12.958a74.758 74.758 0 0 1 40.364-8.204c22.932 2.424 32.627 17.9 21.628 34.491-10.999 16.592-38.407 28.247-61.34 25.823a52.052 52.052 0 0 1-5.5-.932 44.903 44.903 0 0 0 11.559 2.982c23.212 2.704 50.994-10.16 62.086-28.713 11.093-18.553 1.306-35.89-21.914-38.407" fill="#CD1422"/><path d="M100.314 57.804a17.15 17.15 0 0 0 7.533-2.61 5.58 5.58 0 0 0 2.62-4.662 4.7 4.7 0 0 0-1.143-3.075 9.192 9.192 0 0 0-3.112-2.144 13.96 13.96 0 0 0-1.801-.652c-.726-.2-1.465-.356-2.21-.467-.82-.093-1.883-.19-3.03-.28-1.147-.09-21.459-.086-21.459-.086V71.04h10.809V46.245s5.158 0 6.47.19a11.65 11.65 0 0 1 3.11.652c.77.3 1.407.86 1.802 1.585a5.53 5.53 0 0 1 .571 2.798 4.685 4.685 0 0 1-2.286 4.287 7.502 7.502 0 0 1-5.077 1.399l12.939 14.077c.983 0 1.965-.094 2.948-.094h2.374c.984 0 1.965 0 2.948.094-2.378-2.251-4.834-4.387-7.216-6.634a86.709 86.709 0 0 1-6.797-6.805l.007.01zm-84.678-8.95a13.509 13.509 0 0 1 4.83-2.144 20.444 20.444 0 0 1 5.323-.745 22.76 22.76 0 0 1 6.142.838 16.468 16.468 0 0 1 5.158 2.704h.901c.086-.7.251-1.388.492-2.05.223-.7.555-1.36.983-1.958-.901-.28-1.8-.56-2.702-.745-1.065-.19-2.21-.466-3.357-.651-1.148-.185-2.457-.28-3.686-.381-1.229-.101-2.456-.19-3.603-.19a58.52 58.52 0 0 0-9.91.838 30.2 30.2 0 0 0-8.352 2.61 15.274 15.274 0 0 0-5.732 4.661A11.092 11.092 0 0 0 .01 58.642a9.063 9.063 0 0 0 1.637 5.222 15.299 15.299 0 0 0 4.749 4.192 25.9 25.9 0 0 0 7.622 2.704c3.368.683 6.8.996 10.237.932a50.474 50.474 0 0 0 13.429-1.586 6.508 6.508 0 0 1 .491-1.678 9.37 9.37 0 0 1 .902-1.586l-.82-.28a14.98 14.98 0 0 1-2.456 1.212c-.993.364-2.004.675-3.03.932a19.117 19.117 0 0 1-3.194.56 18.35 18.35 0 0 1-3.194.19c-1.902.014-3.8-.205-5.65-.651a16.875 16.875 0 0 1-4.994-2.05 11.444 11.444 0 0 1-3.604-3.543 8.86 8.86 0 0 1-1.393-5.221 10.086 10.086 0 0 1 1.311-5.407 11.257 11.257 0 0 1 3.583-3.73zm123.573-5.026s-4.585.094-4.994 0c-.902 1.492-18.18 26.661-18.675 27.408h6.387l12.37-19.772 12.529 19.763h10.726l-18.343-27.399zm-92.94.19v27.209h25.465a17.016 17.016 0 0 1 0-2.891H56.667c-.164-1.585 0-10.067 0-10.067h9.171v-2.702h-9.007v-8.118h14.903v-3.45l-25.466.02zm253.685 0V62.85l-28.496-18.831h-5.895s.082 27.034 0 27.221h5.158c-.082-.28 0-18.086.082-18.83 10.155 6.432 28.414 18.83 28.414 18.83h6.224l.082-27.221h-5.569zm-47.986 2.983a30.246 30.246 0 0 0-7.853-2.622 50.11 50.11 0 0 0-9.834-.932 48.747 48.747 0 0 0-10.399 1.119 25.427 25.427 0 0 0-7.943 3.075 16.433 16.433 0 0 0-5.076 4.475 9.07 9.07 0 0 0-1.801 5.5 10.543 10.543 0 0 0 1.965 6.433 14.808 14.808 0 0 0 5.322 4.382 30.582 30.582 0 0 0 7.942 2.518 57.21 57.21 0 0 0 9.746.745 46.422 46.422 0 0 0 10.154-1.026 30.498 30.498 0 0 0 7.943-2.89 18.03 18.03 0 0 0 5.24-4.475 9.09 9.09 0 0 0 1.883-5.592 10.537 10.537 0 0 0-1.965-6.247 13.366 13.366 0 0 0-5.322-4.474l-.002.011zm-4.747 15.37a11.725 11.725 0 0 1-3.193 3.916 13.217 13.217 0 0 1-4.667 2.331 23.514 23.514 0 0 1-5.65.745 24.479 24.479 0 0 1-5.241-.56 13.37 13.37 0 0 1-4.421-1.864 9.227 9.227 0 0 1-3.029-3.542 11.88 11.88 0 0 1-1.144-5.313 11.738 11.738 0 0 1 3.768-8.67 12.521 12.521 0 0 1 4.502-2.611c1.946-.678 4-.994 6.06-.932a24.31 24.31 0 0 1 5.814.745 13.934 13.934 0 0 1 4.503 2.237 10.927 10.927 0 0 1 2.948 3.356 9.908 9.908 0 0 1 1.065 4.661 14.167 14.167 0 0 1-1.311 5.5l-.004.002zm-54.867-3.355s.328 9.229.246 9.602a2.945 2.945 0 0 1-1.229.28c-.622.114-1.251.178-1.883.19-.713.022-1.424.085-2.129.191a15.16 15.16 0 0 1-1.964.094 27.774 27.774 0 0 1-6.798-.839 14.695 14.695 0 0 1-4.988-2.34 9.413 9.413 0 0 1-3.112-3.542 9.048 9.048 0 0 1-1.065-4.383 10.195 10.195 0 0 1 1.475-5.406 12.015 12.015 0 0 1 3.767-3.823 16.295 16.295 0 0 1 5.322-2.33 26.378 26.378 0 0 1 6.06-.745 21.761 21.761 0 0 1 7.697 1.118 14.87 14.87 0 0 1 5.24 2.89h.901c.222-.672.496-1.326.82-1.956.327-.652.655-1.306.983-2.05a63.12 63.12 0 0 0-7.207-1.77 53.72 53.72 0 0 0-8.68-.653 60.47 60.47 0 0 0-10.808.932 29.74 29.74 0 0 0-8.68 2.798 16.213 16.213 0 0 0-5.732 4.66 10.463 10.463 0 0 0-2.047 6.619 8.508 8.508 0 0 0 1.965 5.593 17.681 17.681 0 0 0 5.404 4.192 32.525 32.525 0 0 0 8.194 2.61c3.43.634 6.911.946 10.399.932 2.858 0 5.814-.19 8.765-.466 2.952-.277 5.896-.652 8.766-1.212-.082-.191.328-11.001.328-11.001l-10.01-.185z" fill="#fff"/></g></svg>