<svg width="652" height="92" viewBox="0 0 652 92" fill="none" xmlns="http://www.w3.org/2000/svg"><g clip-path="url(#a)" fill="#fff"><path d="M612.801 82.1h-1.8v-2.2h1.3c.7 0 1.9.1 1.9 1 0 1-.6 1.2-1.4 1.2zm3.7-1.2c0-2-1.2-2.6-4.1-2.6h-3.6v9.4h2.3v-3.9h.7l2.2 3.9h2.3l-2.5-4.1c1.6-.1 2.7-.7 2.7-2.7z"/><path d="M612.402 89.4c-3.5 0-6.3-2.7-6.3-6.5s2.8-6.5 6.3-6.5c3.4 0 6.3 2.6 6.3 6.5s-2.9 6.5-6.3 6.5zm0-15.1c-4.8 0-9.3 3.2-9.3 8.7 0 5.5 4.5 8.7 9.3 8.7 4.8 0 9.4-3.2 9.4-8.7-.1-5.5-4.6-8.7-9.4-8.7zm-528.5-18.5c-2.7 8.4-8.4 14.9-18 14.9-15.2 0-15.8-11.6-13.6-23.9 3.1-16.9 11-25.6 21.5-25.6 9.3 0 14.3 5.2 13.5 14.4h28.3c1.7-22.6-11.4-35.8-39.2-35.8-25.4 0-48.6 17.7-53.8 46.1-5.2 28.5 9.7 46.3 39.8 46.3 24 0 43.3-13.6 50.1-36.3h-28.6v-.1zM125.301 2l-16 87.8h26.2l16.1-87.8h-26.3zm61.101 37.6c6.2 0 10.7 5.2 9.6 11.1h-23.9c1.2-6.9 6.4-11.1 14.3-11.1zm-6 36.6c-6.9 0-12.1-5-10.7-12.6h50.1c4.6-23.2-7.2-39.5-31.7-39.5-21.2 0-40 13.4-43.8 34.4-3.9 21.5 10.4 33.2 31.6 33.2 15.4 0 33-5.2 40.5-21.1h-25.1c-2.6 3.7-6.7 5.6-10.9 5.6zm73.198 1.1c-5.2 0-7.9-2.2-7.3-5.4 1.5-8.3 12.5-6.4 21.8-10.4-1 8.8-5.3 15.8-14.5 15.8zm42.8-26.7c2.8-15.2 2.9-26.5-28.4-26.5-26.1 0-37.6 7.9-40 21.5h25.3c1.6-5.5 6.7-6.2 10.4-6.2 2.8 0 8.5.6 7.6 5.2-2.2 11.9-46.9-1.2-52.2 27.8-2.4 13.3 7.6 19.3 20.1 19.3 9.8 0 17.8-1.9 26.5-8.7v6.8h27.2l.2-1.2c-2.9-2.7-2.7-4.5-2-8.2l5.3-29.8zm34.202-11.8h-.3l2.4-12.9h-23.9l-11.7 63.9h26.3l4-22.1c2.5-13.8 8.8-18.7 19.6-18.7 1.8 0 3.6.5 5.3.7l4.6-25.4c-1.1-.1-2.2-.4-3.3-.4-10.2.2-17.5 5-23 14.9zm93.199 6.6c-2.7 14.5-9.7 25.2-22.5 25.2-14.3 0-15.3-14-13.2-25.2 2-11.1 8.5-24.3 22-24.3 13.1-.3 15.8 12.4 13.7 24.3zm-9.6-45.7c-28.3 0-50.9 17.9-55.9 45.5-5.5 29.9 10.5 46.9 39 46.9 26.9 0 50.8-16.8 56.2-46.7 4.3-23.1-6.9-45.7-39.3-45.7zm94.301 24.4c-10 0-17.2 4.2-24.5 11.8l1.8-10h-24l-11.7 63.9h26.3l5.9-32.5c1.5-8.2 4.5-13.2 12.6-13.2 7.4 0 8.2 5.6 7 11.9l-6.2 33.8h26.3l7-38.3c3.3-17.5-3.1-27.4-20.5-27.4zm65.099 15.5c6.2 0 10.7 5.2 9.6 11.1h-23.9c1.3-6.9 6.5-11.1 14.3-11.1zm4.9 31c-2.6 3.8-6.7 5.6-10.9 5.6-6.9 0-12.1-5-10.7-12.6h50.1c4.6-23.2-7.2-39.5-31.7-39.5-21.2 0-40 13.4-43.8 34.4-3.9 21.4 10.4 33.2 31.6 33.2 15.4 0 33-5.2 40.5-21.1h-25.1z"/></g><defs><clipPath id="a"><path fill="#fff" d="M0 0h652v92H0z"/></clipPath></defs></svg>