<svg width="32" height="32" viewBox="0 0 32 32" fill="none" xmlns="http://www.w3.org/2000/svg"><mask id="a" style="mask-type:alpha" maskUnits="userSpaceOnUse" x="0" y="0" width="32" height="32"><path fill="#802DDC" d="M0 0h32v32H0z"/></mask><g mask="url(#a)" fill="#802DDC"><path d="M16.5 32a1.726 1.726 0 0 1-1.223-.5l-8.22-8.223A13.767 13.767 0 0 1 3 13.417a13.332 13.332 0 0 1 3.968-9.532 13.637 13.637 0 0 1 19.064 0A13.327 13.327 0 0 1 30 13.416a13.772 13.772 0 0 1-4.058 9.861l-8.22 8.208A1.725 1.725 0 0 1 16.5 32zm0-30.51a12.045 12.045 0 0 0-8.48 3.463A11.84 11.84 0 0 0 4.5 13.42a12.283 12.283 0 0 0 3.618 8.795l8.217 8.208a.229.229 0 0 0 .328 0l8.22-8.208A12.278 12.278 0 0 0 28.5 13.42a11.843 11.843 0 0 0-3.52-8.466A12.045 12.045 0 0 0 16.5 1.49z"/><path d="M16.5 20.349a6.81 6.81 0 0 1-6.679-5.486 6.817 6.817 0 0 1 4.073-7.625 6.81 6.81 0 0 1 8.27 2.506A6.817 6.817 0 0 1 16.5 20.349zm0-12.127a5.314 5.314 0 0 0-5.206 4.286 5.32 5.32 0 0 0 3.185 5.945 5.313 5.313 0 0 0 7.318-5.439A5.317 5.317 0 0 0 16.5 8.222z"/></g></svg>