<svg width="152" height="53" viewBox="0 0 152 53" fill="none" xmlns="http://www.w3.org/2000/svg"><path d="M30.861 53l-7.122-12.45 10.005-16.826L50.7 53H30.861z" fill="#802DDC"/><path d="M13.904 23.556L0 0h20.178l3.561 6.73-9.835 16.826z" fill="#2280FC"/><path d="M3.9 40.55l10.004-16.993 9.834 16.993H3.9z" fill="#239988"/><path d="M23.74 40.55V6.73l10.004 16.994L23.739 40.55z" fill="#FFD449"/><path d="M52.379 17.178a33.41 33.41 0 0 0-.61-1.793l-.636-1.841h-6.592a82.901 82.901 0 0 1-.66 1.841 56.604 56.604 0 0 0-.586 1.793H39.34c.635-1.809 1.237-3.48 1.807-5.015a217.09 217.09 0 0 1 1.66-4.337c.554-1.357 1.09-2.641 1.612-3.852a91.901 91.901 0 0 1 1.66-3.586h3.638a124.33 124.33 0 0 1 1.636 3.586 103.732 103.732 0 0 1 1.612 3.852 146.43 146.43 0 0 1 1.684 4.337c.57 1.534 1.172 3.206 1.807 5.015H52.38zM47.813 4.192a24.6 24.6 0 0 1-.367.993c-.162.42-.35.904-.561 1.454-.212.549-.448 1.155-.708 1.817a239.63 239.63 0 0 0-.757 2.084h4.81c-.26-.727-.513-1.422-.757-2.084a48.762 48.762 0 0 0-.708-1.817l-.562-1.454c-.163-.42-.293-.751-.39-.993zM61.225 8.77c0 .825.098 1.568.293 2.23.212.662.505 1.236.88 1.72.39.468.862.832 1.416 1.09.553.259 1.188.388 1.904.388.7 0 1.327-.13 1.88-.388a3.783 3.783 0 0 0 1.416-1.09 4.939 4.939 0 0 0 .88-1.72c.211-.662.317-1.405.317-2.23 0-.823-.106-1.566-.317-2.228-.196-.679-.489-1.252-.88-1.72a3.683 3.683 0 0 0-1.416-1.115c-.553-.258-1.18-.388-1.88-.388-.716 0-1.35.138-1.904.412a3.942 3.942 0 0 0-1.417 1.115c-.374.468-.667 1.042-.879 1.72a7.779 7.779 0 0 0-.293 2.205zm12.917 0c0 1.18-.146 2.246-.44 3.199a8.039 8.039 0 0 1-1.245 2.471 6.97 6.97 0 0 1-1.88 1.769 7.827 7.827 0 0 1-2.417 1.018c.081.323.26.581.537.775.277.21.627.38 1.05.509.423.129.912.226 1.465.29.57.065 1.18.122 1.831.17l-.781 2.762c-1.27-.048-2.36-.178-3.272-.387-.895-.194-1.66-.469-2.295-.824-.619-.356-1.115-.792-1.49-1.309a6.073 6.073 0 0 1-.83-1.793 8.977 8.977 0 0 1-2.808-.823 7.37 7.37 0 0 1-2.246-1.745c-.635-.727-1.131-1.599-1.49-2.617-.358-1.017-.537-2.172-.537-3.464 0-1.438.228-2.698.684-3.78.456-1.098 1.066-2.019 1.831-2.762A7.736 7.736 0 0 1 62.495.557 9.39 9.39 0 0 1 65.718 0c1.156 0 2.247.186 3.272.557a7.45 7.45 0 0 1 2.686 1.672c.765.743 1.367 1.664 1.807 2.762.44 1.082.66 2.342.66 3.78zm9.792 8.747c-1.188 0-2.213-.161-3.076-.484-.863-.34-1.58-.8-2.149-1.381a5.855 5.855 0 0 1-1.245-2.108c-.26-.824-.39-1.729-.39-2.714V.388h3.808v10.127c0 .679.073 1.26.22 1.745.163.468.374.856.635 1.163.277.29.602.5.977.63.39.129.814.193 1.27.193.927 0 1.676-.282 2.246-.848.586-.565.879-1.526.879-2.883V.388h3.809V10.83c0 .986-.139 1.89-.415 2.714a5.654 5.654 0 0 1-1.27 2.132c-.57.582-1.294 1.034-2.173 1.357-.88.323-1.921.484-3.126.484zm21.5-.339a33.254 33.254 0 0 0-.611-1.793l-.634-1.841h-6.593a82.901 82.901 0 0 1-.66 1.841 56.596 56.596 0 0 0-.585 1.793h-3.956a297.22 297.22 0 0 1 1.807-5.015 217.09 217.09 0 0 1 1.66-4.337 224.078 224.078 0 0 1 1.612-3.852 91.754 91.754 0 0 1 1.66-3.586h3.638a122.457 122.457 0 0 1 1.636 3.586 101.87 101.87 0 0 1 1.612 3.852 148.665 148.665 0 0 1 1.685 4.337 305.254 305.254 0 0 1 1.807 5.015h-4.078zm-4.566-12.986c-.082.242-.204.573-.366.993l-.562 1.454c-.212.549-.448 1.155-.708 1.817a239.63 239.63 0 0 0-.757 2.084h4.81c-.26-.727-.513-1.422-.757-2.084a48.422 48.422 0 0 0-.708-1.817c-.211-.55-.399-1.034-.561-1.454-.163-.42-.293-.751-.391-.993zM122.249.388V3.61h-5.103v13.568h-3.809V3.61h-5.103V.388h14.015zm2.448 16.79V.388h11.428v3.174h-7.618v3.295h6.763v3.101h-6.763v4.046h8.179v3.174h-11.989zm26.113-3.247v3.247h-11.305V.388h3.809V13.93h7.496zm-35.165 9.677h1.66v16.79h-1.66v-16.79zm17.581 16.79a33.34 33.34 0 0 0-1.196-1.987 92.813 92.813 0 0 0-1.563-2.422 96.715 96.715 0 0 0-1.807-2.666 98.253 98.253 0 0 0-1.904-2.665 56.7 56.7 0 0 0-1.832-2.447 48.761 48.761 0 0 0-1.587-1.962v14.15h-1.636V23.607h1.319a58.51 58.51 0 0 1 2.661 3.198 90.52 90.52 0 0 1 2.808 3.682 83.548 83.548 0 0 1 2.54 3.66 52.902 52.902 0 0 1 1.953 3.125V23.608h1.636v16.79h-1.392zm12.819.363a7.954 7.954 0 0 1-3.052-.581 7.062 7.062 0 0 1-2.442-1.696c-.684-.743-1.229-1.656-1.636-2.738-.391-1.098-.586-2.35-.586-3.755 0-1.406.212-2.65.635-3.732.439-1.098 1.017-2.019 1.733-2.762a6.978 6.978 0 0 1 2.491-1.671 7.706 7.706 0 0 1 2.955-.582c.634 0 1.212.04 1.733.121a8.63 8.63 0 0 1 1.368.315c.39.113.724.235 1.001.364.276.113.488.218.634.315l-.537 1.43c-.407-.243-.928-.477-1.562-.704-.619-.242-1.392-.363-2.32-.363-1.058 0-1.986.178-2.784.533a5.492 5.492 0 0 0-1.977 1.502c-.538.646-.945 1.414-1.221 2.302-.261.888-.391 1.874-.391 2.956 0 1.114.13 2.124.391 3.029.276.888.675 1.647 1.196 2.277a5.25 5.25 0 0 0 1.905 1.454c.765.339 1.636.509 2.612.509 1.075 0 1.97-.097 2.686-.291.733-.21 1.286-.42 1.661-.63l.464 1.405a3.21 3.21 0 0 1-.586.29 15.01 15.01 0 0 1-1.05.316 10.43 10.43 0 0 1-1.465.266 12.9 12.9 0 0 1-1.856.121z" fill="#161616"/></svg>