<svg width="343" height="115" viewBox="0 0 343 115" fill="none" xmlns="http://www.w3.org/2000/svg"><mask id="a" style="mask-type:alpha" maskUnits="userSpaceOnUse" x="0" y="0" width="343" height="115"><path fill="#C4C4C4" d="M0 0h343v115H0z"/></mask><g mask="url(#a)"><path d="M55.434 72.984l-9.13-5.28-2.859-1.65c-1.1-.824-1.815-2.199-1.815-3.684 0-1.484.715-2.86 1.815-3.684l2.86-1.65-9.13-5.28c-3.024 2.585-4.894 6.38-4.894 10.67 0 4.234 1.87 8.028 4.895 10.613.495.44 1.045.825 1.595 1.155l7.534 4.345 25.187 14.573c2.09 1.21 4.455 1.925 7.04 1.925 7.754 0 14.023-6.27 14.023-14.024V43.727c0-7.754-6.27-14.023-14.023-14.023-2.585 0-5.005.715-7.095 1.924L46.25 46.202l7.534 4.345c.55.33 1.1.77 1.595 1.154l20.733-12.043c.715-.44 1.54-.66 2.365-.66a4.67 4.67 0 0 1 4.674 4.674v37.286a4.67 4.67 0 0 1-4.674 4.675c-.88 0-1.65-.22-2.365-.66L55.434 72.984z" fill="#25A4DC"/><path d="M236.365 75.57V48.127h13.089v-9.02h-13.089V26.845h-9.404v48.78c0 14.629 9.294 22.548 22.658 21.008v-8.69c-7.094.386-13.254-2.2-13.254-12.373zm-25.736-54.446a5.714 5.714 0 0 0-5.719 5.72c0 3.135 2.584 5.72 5.719 5.72a5.714 5.714 0 0 0 5.719-5.72c0-3.135-2.584-5.72-5.719-5.72zm117.743 56.48V17.55h-9.624v60.109c0 10.559 8.579 19.138 19.138 19.138v-9.624c-5.224-.055-9.514-4.29-9.514-9.57zM181.316 22.059l-22.988 55.435-22.822-55.434h-13.584v73.692h9.569V35.094l24.967 60.658h3.795l25.077-60.658v60.658h9.405V22.06h-13.419z" fill="#fff"/><path d="M46.305 57.036l2.86 1.65c1.1.88 1.815 2.2 1.815 3.684 0 1.485-.715 2.86-1.815 3.685l-2.86 1.65 9.13 5.28c2.97-2.585 4.894-6.38 4.894-10.615 0-4.234-1.925-8.084-4.895-10.669a10.672 10.672 0 0 0-1.594-1.154l-7.535-4.345-25.187-14.574a14.124 14.124 0 0 0-7.094-1.924C6.269 29.704 0 35.973 0 43.727v37.286c0 7.755 6.27 14.024 14.024 14.024 2.584 0 4.95-.715 7.039-1.925L46.25 78.54l-7.534-4.345c-.55-.33-1.1-.77-1.595-1.155L16.388 84.973c-.715.385-1.485.66-2.364.66a4.67 4.67 0 0 1-4.675-4.675V43.672a4.67 4.67 0 0 1 4.675-4.674c.88 0 1.704.275 2.364.66L37.121 51.7l9.184 5.335z" fill="#585858"/><path d="M337.666 17c2.914 0 5.334 2.31 5.334 5.28 0 3.08-2.42 5.334-5.334 5.334-2.915 0-5.39-2.31-5.39-5.335 0-2.97 2.475-5.279 5.39-5.279zm0 9.899c2.474 0 4.399-1.98 4.399-4.565 0-2.53-1.925-4.51-4.399-4.51-2.475 0-4.4 1.98-4.4 4.51 0 2.585 1.925 4.565 4.4 4.565zm-2.09-7.644h2.42c1.485 0 2.199.605 2.199 1.76 0 1.154-.714 1.594-1.649 1.704l1.759 2.75h-1.044l-1.705-2.695h-1.045v2.695h-.99v-6.214h.055zm.99 2.75h.99c.88 0 1.65-.055 1.65-1.045 0-.825-.715-.935-1.375-.935h-1.265v1.98zM215.412 38.227h-9.514v57.58h9.514v-57.58zm67.149 51.09c-9.514 0-18.643-7.04-19.853-18.973h48.34c.11-20.458-14.188-32.722-29.037-32.722-15.948 0-28.927 13.639-28.927 30.247 0 16.883 12.979 30.027 29.477 30.027 13.309 0 23.098-6.93 27.113-19.193h-10.009c-3.135 6.71-8.965 10.614-17.104 10.614zm-.66-43.116c8.359 0 16.169 6.27 18.533 15.619h-37.286c2.475-9.79 10.834-15.619 18.753-15.619z" fill="#fff"/></g></svg>