<svg width="288" height="115" viewBox="0 0 288 115" fill="none" xmlns="http://www.w3.org/2000/svg"><path d="M44.6.7l-8.4 19.5L27.9.7H14.3V45h10.8V17.5L31 32h10.2l5.9-14.6v27.7h11V.7H44.6zm45.7 24.5c-.2 3.2-.7 5.6-1.7 7.4-1.1 2.2-2.8 3.3-5 3.3s-3.9-1.1-5-3.3c-1-1.8-1.5-4.2-1.6-7.4H64.7c.1 2.4.5 4.6 1.1 6.8.8 2.8 2.1 5.2 3.6 7.3 1.6 2.1 3.5 3.6 5.9 4.7 2.4 1.1 5.1 1.7 8.2 1.7 3.1 0 5.8-.6 8.2-1.7 2.4-1.1 4.4-2.8 5.9-4.7 1.6-1.9 2.8-4.5 3.6-7.3.6-2.1 1-4.4 1.1-6.8h-12zm11.1-11.5c-.8-2.8-2.1-5.2-3.6-7.3-1.6-2.1-3.6-3.6-5.9-4.7C89.5.6 86.7 0 83.6 0c-3.1 0-5.9.6-8.2 1.7C73 2.8 71 4.5 69.5 6.4c-1.6 2.1-2.8 4.5-3.6 7.3-.7 2.4-1.1 5-1.2 7.8h12.4c.1-3.6.7-6.4 1.7-8.4 1.1-2.2 2.8-3.3 5-3.3s3.9 1.1 5 3.3c1 1.9 1.6 4.7 1.7 8.4h12.4c-.4-2.7-.8-5.4-1.5-7.8zm29.9 11.5c-.1 1.3-.2 2.5-.5 3.5-.4 1.6-.8 2.9-1.6 3.9-.7 1-1.6 1.7-2.5 2.1-.9.4-2.1.6-3.4.6h-2.1V25.2h-12.1V45h14.3c3 0 5.8-.5 8.2-1.5 2.5-1 4.6-2.3 6.4-4.1 1.8-1.8 3.1-4.1 4.1-6.9.7-2.2 1.2-4.6 1.3-7.3h-12.1zm10.9-12c-1-2.8-2.3-5.1-4.1-6.9-1.8-1.8-3.9-3.3-6.4-4.1-2.4-1-5.2-1.3-8.2-1.3h-14.3v20.7h12.2V10.4h2.1c1.2 0 2.4.2 3.4.6 1 .5 1.8 1.2 2.5 2.2.7 1 1.2 2.3 1.6 3.9.2 1.2.5 2.7.5 4.4h12.4c-.3-3.1-.8-5.9-1.7-8.3zm30.9 12v1.5c0 3-.5 5.2-1.3 6.7s-2.2 2.2-4 2.2c-1.8 0-3.1-.7-4.1-2.2-.8-1.5-1.3-3.6-1.3-6.7v-1.5h-12.1v1.2c0 3.3.4 6.1 1.2 8.5.8 2.4 2.1 4.4 3.5 6.1 1.6 1.6 3.4 2.8 5.6 3.6 2.2.8 4.6 1.2 7.3 1.2s5.1-.4 7.3-1.2c2.2-.8 4-1.9 5.6-3.6 1.6-1.6 2.8-3.6 3.5-6.1.8-2.4 1.2-5.2 1.2-8.5v-1.2h-12.4zm0-24.5v20.7h12.2V.7h-12.2zm-22.9 0v20.7h12.2V.7h-12.2zM206 34.9v-9.6h-12.2v19.8h29.4V34.9H206zM193.7.7v20.7H206V.7h-12.3zm-41.5 55.7c-.6-.4-1.3-.7-2.1-.8-.7-.1-1.5-.2-2.1-.2-1.3 0-2.2.2-2.8.7-.6.5-.8 1.2-.8 2.1 0 .8.2 1.6.8 2.1.6.6 1.5 1.1 2.7 1.6 1 .4 1.8.7 2.5 1.2.7.4 1.2.8 1.7 1.3s.7 1.1 1 1.7c.2.6.4 1.3.4 2.1 0 1.8-.6 3.2-1.7 4.1-1.1 1-2.7 1.5-4.7 1.5-1.8 0-3.4-.5-4.8-1.3l.2-2.7c.7.6 1.5 1 2.3 1.2.8.2 1.7.4 2.5.4 1.3 0 2.3-.2 2.9-.8.6-.6 1-1.3 1-2.3 0-1-.2-1.7-.8-2.3-.6-.6-1.6-1.2-3-1.7-1.7-.6-3-1.5-3.9-2.4-.8-1-1.2-2.2-1.2-3.6 0-1.6.5-2.9 1.6-3.8 1.1-1 2.5-1.3 4.5-1.3.7 0 1.5.1 2.2.2.7.1 1.5.4 2.1.7l-.5 2.3zm19.7 7c0 1.5-.1 2.8-.5 4.1-.4 1.2-.8 2.4-1.6 3.3-.7 1-1.5 1.7-2.4 2.2-1 .5-2.1.8-3.3.8-1.2 0-2.4-.2-3.4-.8-1-.6-1.8-1.3-2.4-2.2-.7-1-1.2-2.1-1.6-3.3-.4-1.2-.5-2.7-.5-4.1 0-1.4.1-2.8.5-4.1.4-1.2.8-2.4 1.6-3.3.7-1 1.5-1.7 2.4-2.2 1-.5 2.1-.8 3.4-.8 1.2 0 2.3.2 3.3.8 1 .5 1.8 1.3 2.4 2.2.7 1 1.2 2.1 1.6 3.3.4 1.2.5 2.7.5 4.1zm-13.4 0c0 1.2.1 2.4.4 3.4.2 1 .6 1.8 1.1 2.5.5.7 1.1 1.2 1.8 1.6.7.4 1.5.6 2.3.6.8 0 1.6-.2 2.3-.6.7-.4 1.3-1 1.8-1.6.5-.7.8-1.6 1.1-2.5.2-1 .4-2.1.4-3.4 0-1.2-.1-2.4-.4-3.4-.2-1-.6-1.8-1.1-2.5-.5-.7-1.1-1.2-1.8-1.6-.7-.4-1.5-.6-2.3-.6-.8 0-1.6.2-2.3.6-.7.4-1.3 1-1.8 1.6-.5.7-.8 1.6-1.1 2.5-.3 1-.4 2.1-.4 3.4zm17.3-10h2.2v18h9.4v2.3h-11.8V53.4h.2zm21.8 20.5c-1 0-1.9-.1-2.8-.5-.8-.4-1.6-.8-2.2-1.6-.6-.7-1.1-1.6-1.5-2.5-.4-1-.5-2.2-.5-3.6V53.4h2.2v12.1c0 1.9.4 3.4 1.1 4.5.7 1.1 1.9 1.6 3.6 1.6 1.7 0 2.9-.5 3.6-1.6.7-1.1 1.1-2.5 1.1-4.5V53.4h2.2v12.3c0 1.3-.1 2.5-.5 3.6-.4 1-.8 1.9-1.5 2.5-.6.7-1.3 1.2-2.2 1.6-.5.2-1.5.5-2.6.5zm15.3-18.3h-5.5v-2.2h13.2v2.3h-5.5v18H213V55.6h-.1zm12.9-2.2v20.1h-2.2V53.4h2.2zm19.6 10c0 1.5-.1 2.8-.5 4.1-.4 1.2-.8 2.4-1.6 3.3-.7 1-1.5 1.7-2.4 2.2-1 .5-2.1.8-3.3.8-1.2 0-2.4-.2-3.4-.8-1-.6-1.8-1.3-2.4-2.2-.7-1-1.2-2.1-1.6-3.3-.4-1.2-.5-2.7-.5-4.1 0-1.4.1-2.8.5-4.1.4-1.2.8-2.4 1.6-3.3.7-1 1.5-1.7 2.4-2.2 1-.5 2.1-.8 3.4-.8 1.2 0 2.3.2 3.3.8 1 .5 1.8 1.3 2.4 2.2.7 1 1.2 2.1 1.6 3.3.4 1.2.5 2.7.5 4.1zm-13.4 0c0 1.2.1 2.4.4 3.4.2 1 .6 1.8 1.1 2.5.5.7 1.1 1.2 1.8 1.6.7.4 1.5.6 2.3.6.8 0 1.6-.2 2.3-.6.7-.4 1.3-1 1.8-1.6.5-.7.8-1.6 1.1-2.5.2-1 .4-2.1.4-3.4 0-1.2-.1-2.4-.4-3.4-.2-1-.6-1.8-1.1-2.5-.5-.7-1.1-1.2-1.8-1.6-.7-.4-1.5-.6-2.3-.6-.8 0-1.6.2-2.3.6-.7.4-1.3 1-1.8 1.6-.5.7-.8 1.6-1.1 2.5-.3 1-.4 2.1-.4 3.4zm17.2-10h2.7l9.1 17v-17h2.1v20.1h-2.7l-9.1-17v17h-2.1V53.4zm27.7 3c-.6-.4-1.3-.7-2.1-.8-.7-.1-1.5-.2-2.1-.2-1.3 0-2.2.2-2.8.7-.6.5-.8 1.2-.8 2.1 0 .8.2 1.6.8 2.1.6.6 1.5 1.1 2.7 1.6 1 .4 1.8.7 2.5 1.2.7.4 1.2.8 1.7 1.3s.7 1.1 1 1.7c.2.6.4 1.3.4 2.1 0 1.8-.6 3.2-1.7 4.1-1.1 1-2.7 1.5-4.7 1.5-1.8 0-3.4-.5-4.8-1.3l.2-2.7c.7.6 1.5 1 2.3 1.2.8.2 1.7.4 2.5.4 1.3 0 2.3-.2 2.9-.8.6-.6 1-1.3 1-2.3 0-1-.2-1.7-.8-2.3-.6-.6-1.6-1.2-3-1.7-1.7-.6-3-1.5-3.9-2.4-.8-1-1.2-2.2-1.2-3.6 0-1.6.5-2.9 1.6-3.8 1.1-1 2.5-1.3 4.5-1.3.7 0 1.5.1 2.2.2.7.1 1.5.4 2.1.7l-.5 2.3z" fill="#fff"/><path d="M249.3.7V45h-12.2V.7h12.2zm15.5 10.2h-9.9V.7H287v10.2h-9.9V45h-12.2V10.9h-.1z" stroke="#fff" stroke-miterlimit="10"/><path fill-rule="evenodd" clip-rule="evenodd" d="M92.6 78.4l21.2-21.3 29 28.9-29 29-21.2-21.2L71.4 115 50.2 93.8 29 115 0 86l29-28.9 21.2 21.3 21.2-21.3 21.2 21.3zM19.3 98a1 1 0 0 0 1 1h17a1 1 0 0 0 1-1V74a1 1 0 0 0-1-1h-17a1 1 0 0 0-1 1v24zm56.9-11.5a1 1 0 0 1 1-1h5.4a1 1 0 0 0 1-1V73.8a1 1 0 0 0-1-1h-7a1 1 0 0 1-1-1v-.5a1 1 0 0 0-1-1h-4.5a1 1 0 0 0-1 1v.7a1 1 0 0 1-1 1H60a1 1 0 0 0-1 1v10.6a1 1 0 0 0 1 1h5.5a1 1 0 0 1 1 1v7a1 1 0 0 1-1 1H61a1 1 0 0 0-1 1v.7a1 1 0 0 0 1 1h.9a1 1 0 0 1 1 1v2.15a.85.85 0 1 0 1.7 0V98.3a1 1 0 0 1 1-1h11.5a1 1 0 0 1 1 1v2.15a.85.85 0 1 0 1.7 0V98.3a1 1 0 0 1 1-1h.9a1 1 0 0 0 1-1v-.7a1 1 0 0 0-1-1h-4.5a1 1 0 0 1-1-1v-7.1zM110.7 70c-.7 0-1.3.6-1.3 1.2v2.2c0 .6.5 1.2 1.2 1.2h6.1c.7 0 1.2-.6 1.2-1.2v-2.2c0-.6-.5-1.2-1.2-1.2h-1.8v-.3a1 1 0 0 0-1-1h-.4a1 1 0 0 0-1 1v.3h-1.8zm4.6 10.4h1.9c.7 0 1.2-.5 1.2-1.2v-2.1c0-.7-.6-1.2-1.2-1.2h-6.8c-.7 0-1.2.5-1.2 1.2v2.1c0 .6.5 1.2 1.2 1.2h1.9v16.3a.7.7 0 0 0 .7.7v2.6a.8.8 0 1 0 1.6 0v-2.6a.7.7 0 0 0 .7-.7V80.4zM37.3 98h-17v-4h17v4zm0-5h-17v-5h17v5zm0-6h-17v-5.5h17V87zm0-6.5h-17V76h17v4.5zm23.4-4.9a1 1 0 0 1 1-1h19.1a1 1 0 0 1 1 1v7.1a1 1 0 0 1-1 1H61.7a1 1 0 0 1-1-1v-7.1z" fill="#fff"/></svg>