<svg width="32" height="32" viewBox="0 0 32 32" fill="none" xmlns="http://www.w3.org/2000/svg"><mask id="a" style="mask-type:alpha" maskUnits="userSpaceOnUse" x="0" y="0" width="32" height="32"><path fill="#802DDC" d="M0 0h32v32H0z"/></mask><g mask="url(#a)"><path d="M7.686 24.314A24.555 24.555 0 0 1 .501 6.739a5.208 5.208 0 0 1 .143-.488 3.61 3.61 0 0 1 .17-.422 1.01 1.01 0 0 1 .16-.252l.002-.001 2.121-2.123c.309-.308.785-.554 1.318-.68.533-.125 1.069-.118 1.483.02l.446.15h.002c.423.141.89.46 1.29.882.399.422.692.905.809 1.336l1.068 3.92c.117.427.103.979-.04 1.524-.142.547-.398 1.032-.708 1.342l-1.418 1.418-.204.204.075.28a15.542 15.542 0 0 0 10.936 10.94l.28.075.205-.205 1.418-1.418c.31-.31.795-.565 1.343-.708.547-.142 1.1-.156 1.527-.04l3.92 1.07c.43.117.912.41 1.334.808.422.399.742.865.884 1.29l.148.447c.138.415.145.951.02 1.484-.127.533-.372 1.01-.68 1.317l-2.12 2.12h-.001a1.012 1.012 0 0 1-.255.159c-.132.063-.285.12-.437.17a5.885 5.885 0 0 1-.52.141h-.003a24.557 24.557 0 0 1-17.53-7.185zm17.578 7.185h-.005.005zM16.5 13.55v-1.014a3.503 3.503 0 0 1 2.964 2.964H18.45a2.508 2.508 0 0 0-1.95-1.95zm8.987 1.95h-1.002c-.25-4.288-3.694-7.735-7.985-7.985V6.513a9.5 9.5 0 0 1 8.987 8.986zM16.5 1.51V.507c8.162.259 14.733 6.83 14.992 14.991h-1C30.231 7.901 24.097 1.768 16.5 1.51z" stroke="#802DDC"/></g></svg>