<svg width="343" height="115" viewBox="0 0 343 115" fill="none" xmlns="http://www.w3.org/2000/svg"><mask id="a" style="mask-type:alpha" maskUnits="userSpaceOnUse" x="0" y="0" width="343" height="115"><path fill="#C4C4C4" d="M0 0h343v115H0z"/></mask><g mask="url(#a)"><path d="M178.837 39.048c-10.846-.14-19.694 8.32-19.837 19.035V97l9.99-5.64V74.58c2.854 2.116 6.422 3.244 10.133 3.244 10.846.282 19.837-8.32 20.123-19.035.285-10.717-8.42-19.6-19.267-19.882-.428.141-.713.141-1.142.141zm0 29.047c-5.423 0-9.847-4.371-9.847-9.73 0-5.358 4.424-9.729 9.847-9.729 5.424 0 9.848 4.371 9.848 9.73.285 5.076-3.711 9.447-8.849 9.729h-.999zm68.361-41.314l9.99-5.781v55.273h-9.99V26.78zm-24.832 12.267c-10.847.141-19.552 8.883-19.41 19.6.143 10.716 8.991 19.317 19.838 19.176 10.846-.141 19.409-8.742 19.409-19.459 0-10.716-8.705-19.317-19.409-19.458-.143.141-.286.141-.428.141zm0 29.047c-5.423 0-9.848-4.371-9.848-9.73 0-5.358 4.425-9.729 9.848-9.729 5.423 0 9.847 4.371 9.847 9.73.286 5.076-3.711 9.447-8.848 9.729h-.999zM303 40.458l-23.405 52.735h-10.704l8.135-17.625-15.699-35.11h10.846l10.276 22.984 9.847-22.984H303z" fill="#fff"/><path d="M72.368 77.153c-10.877 0-19.694-8.786-19.694-19.624s8.817-19.623 19.694-19.623c10.877 0 19.694 8.785 19.694 19.623 0 10.838-8.817 19.624-19.694 19.624zm53.409-27.171l-20.821 11.977.095-.563.059-.5.069-.828.003-.063.004-.057.04-1.012.008-1.11-.016-.804-.051-1.152-.076-1.056-.114-1.142-.079-.628-.164-1.111-.194-1.092-.226-1.07-.256-1.048-.176-.646-.305-1.013-.334-.991-.299-.808-.391-.956-.417-.936-.445-.91-.482-.903-.51-.888-.046-.074-.549-.874-.582-.86-.615-.846-.653-.837-.694-.828-.078-.091-.735-.817-.774-.806-.82-.801-.864-.797-.068-.06-.916-.79-.976-.795-.979-.756-1.096-.803-1.184-.823-.888-.593-1.359-.87-1.531-.942-.509-.305-1.88-1.103-.465-.27-1.184-.682L39.103 0v15.216l20.82 11.977-.537.198-.463.2-.753.354-.058.03-.054.026-.898.471-.966.548-.693.415-.975.62-.88.595-.936.67-.511.384-.883.696-.85.713-.815.729-.782.744-.476.477-.727.768-.693.783-.554.666-.635.813-.603.827-.571.84-.544.866-.514.884-.046.082-.483.909-.455.93-.428.953-.4.98-.373 1.011-.041.12-.342 1.04-.312 1.068-.288 1.105-.258 1.143-.02.095-.228 1.184-.203 1.236-.169 1.228-.149 1.345-.123 1.432-.072 1.066-.076 1.604-.053 1.79-.011.598-.02 2.17v.54L39 66.5V115l13.223-7.608V83.437l.446.365.4.3.692.476.048.03.036.025.864.544.968.565.699.385 1.034.536.949.459 1.058.476.554.234 1.055.418 1.054.381 1.05.342 1.045.306.636.17 1.041.244 1.035.208.839.142 1.031.145 1.03.108 1 .069 1.031.038 1.035.003.066-.002 1.04-.037 1.047-.071 1.05-.11 1.062-.146 1.075-.185.095-.019 1.084-.227 1.095-.266 1.114-.31 1.135-.352.061-.02 1.153-.397 1.187-.448 1.13-.461 1.255-.55 1.318-.614.94-.462 1.445-.742 1.596-.857.497-.276 1.912-1.076.455-.26 1.183-.68L139 57.588l-13.223-7.606z" fill="#FF3B00"/></g></svg>