<svg width="32" height="32" viewBox="0 0 32 32" fill="none" xmlns="http://www.w3.org/2000/svg"><mask id="a" style="mask-type:alpha" maskUnits="userSpaceOnUse" x="0" y="0" width="32" height="32"><path fill="#802DDC" d="M0 0h32v32H0z"/></mask><g mask="url(#a)" fill="#802DDC"><path d="M29.183 8.136a.745.745 0 0 0-.493-.287.766.766 0 0 0-.557.138l-12.097 8.83a.254.254 0 0 1-.3 0L3.876 7.948a.757.757 0 0 0-.555-.144.762.762 0 0 0-.496.282.727.727 0 0 0-.147.543.722.722 0 0 0 .288.485l9.325 6.974-9.223 6.796a.744.744 0 0 0-.295.485.722.722 0 0 0 .142.547.749.749 0 0 0 .496.29.77.77 0 0 0 .56-.14l9.557-7.054 1.295.978a1.776 1.776 0 0 0 2.108.015l1.36-.993 9.67 7.055a.759.759 0 0 0 .832.042.743.743 0 0 0 .344-.45.718.718 0 0 0-.083-.555.739.739 0 0 0-.196-.213l-9.315-6.805 9.488-6.93a.72.72 0 0 0 .152-1.02z"/><path d="M28.25 5H3.75c-.995 0-1.948.386-2.652 1.074A3.626 3.626 0 0 0 0 8.667v14.666c0 .973.395 1.905 1.098 2.593A3.794 3.794 0 0 0 3.75 27h24.5c.995 0 1.948-.386 2.652-1.074A3.626 3.626 0 0 0 32 23.333V8.667c0-.973-.395-1.905-1.098-2.593A3.794 3.794 0 0 0 28.25 5zm2.25 18.333c0 .584-.237 1.143-.659 1.556a2.277 2.277 0 0 1-1.591.644H3.75a2.276 2.276 0 0 1-1.591-.644 2.176 2.176 0 0 1-.659-1.556V8.667c0-.584.237-1.143.659-1.556a2.276 2.276 0 0 1 1.591-.644h24.5c.597 0 1.169.231 1.591.644.422.413.659.972.659 1.556v14.666z"/></g></svg>