<svg width="2500" height="1396" viewBox="0 0 2500 1396" fill="none" xmlns="http://www.w3.org/2000/svg">
<g clip-path="url(#clip0_338_3433)">
<path d="M0.109375 1396H2499.89V0H0.109375V1396ZM122.607 122.459H2377.43V1273.5H122.607V122.459Z" fill="white"/>
<path d="M1351.71 409.981C1351.71 409.981 1254.51 776.596 1246.48 815.721L1140.49 409.943H939.82V972.684H1071.18V558.996L1185.89 972.684H1307.12C1307.12 972.684 1419.07 571.987 1421.83 559.837V972.684H1553.68V409.981H1351.67H1351.71ZM869.516 883.007V589.716C869.516 529.957 868.369 477.955 803.032 438.141C754.354 409.293 690.201 402.683 637.053 402.683C601.671 402.683 469.889 402.683 416.74 498.97C399.432 530.263 396.872 553.188 394.77 580.011H394.694H394.77V580.125L530.794 580.011C531.023 567.593 532.628 554.946 544.052 541.038C557.273 523.271 587.152 505.503 642.555 505.503C751.756 505.503 735.632 615.621 735.632 615.621C735.632 615.621 681.07 616.386 565.029 630.638C511.384 637.286 426.675 658.263 386.785 738.005C375.115 761.405 369.058 787.203 369.094 813.353C369.094 908.493 444.365 985.98 569.461 985.98C645.803 985.98 704.53 953.999 733.301 929.507C733.301 937.264 735.517 959.425 736.663 972.684H871.694C869.516 883.007 869.516 925.152 869.516 883.007V883.007ZM736.74 757.95C736.74 774.609 736.74 791.115 728.945 807.698C714.579 840.939 666.932 871.927 599.379 871.927C546.192 871.927 509.703 849.842 509.703 806.666C509.703 747.901 564.723 734.833 612.446 728.911C672.167 721.46 736.74 719.206 736.74 719.206V757.95ZM2136.83 754.129L2007.99 754.434C2004.17 769.947 1977.31 871.43 1876.93 871.43C1875.44 871.43 1859.28 871.43 1857.87 871.354C1784.05 869.023 1723.48 807.698 1723.48 686.575C1723.48 593.69 1770.33 510.05 1858.93 508.063H1876.93C1968.75 508.063 2000.92 604.121 2002.68 609.967L2131.44 610.349C2106.53 490.373 2012.73 392.443 1870.51 392.443C1711.18 392.443 1597.93 523.882 1597.93 690.473C1597.93 880.944 1718.29 989.381 1867.38 989.381C2033.36 989.381 2119.4 862.489 2136.79 754.129" fill="white"/>
</g>
<defs>
<clipPath id="clip0_338_3433">
<rect width="2500" height="1396" fill="white"/>
</clipPath>
</defs>
</svg>
