<?xml version="1.0" encoding="utf-8"?>
<!-- Generator: Adobe Illustrator 16.0.0, SVG Export Plug-In . SVG Version: 6.00 Build 0)  -->
<!DOCTYPE svg PUBLIC "-//W3C//DTD SVG 1.1//EN" "http://www.w3.org/Graphics/SVG/1.1/DTD/svg11.dtd">
<svg version="1.1" id="Capa_1" xmlns="http://www.w3.org/2000/svg" xmlns:xlink="http://www.w3.org/1999/xlink" x="0px" y="0px"
	 width="462px" height="164px" viewBox="0 0 462 164" enable-background="new 0 0 462 164" xml:space="preserve">
<g>
	<path fill="#fff" d="M197.259,76.218h9.708v36.19c0,7.035,3.294,10.759,7.932,10.759h24.143v7.599h-21.202
		c-10.329,0-20.677-6.307-20.677-21.696C197.162,91.742,197.259,76.218,197.259,76.218"/>
	<path fill="#fff" d="M273.054,122.934h-17.396c-3.366,0-7.723-1.883-7.723-9.398v-9.812h25.063c5.085,0,7.599,4.672,7.599,8.107
		v2.748C280.597,118.729,278.962,122.934,273.054,122.934 M238.021,76.383v33.029c0,11.735,7.585,21.052,20.069,21.052h12.524
		c26.046,0,26.252-34.366-0.57-34.366h-22.219V76.479L238.021,76.383z"/>
	<path fill="#fff" d="M294.544,79.557v51.401h9.805V79.557C304.349,75.263,294.544,75.277,294.544,79.557"/>
	<path fill="#fff" d="M154.686,123.112h17.39c3.37,0,7.726-2.433,7.726-9.413v-9.934h-24.799c-5.088,0-7.867,4.383-7.867,8.245
		v2.762C147.135,118.907,148.767,123.112,154.686,123.112 M143.831,76.369h23.84c13.501,0,21.896,9.165,21.896,21.79v10.718
		c0,12.683-7.008,21.793-21.093,21.793h-11.298c-25.703,0-26.665-34.339,0.711-34.339h21.865v-3.504
		c0-3.926-2.611-7.266-7.338-7.266h-28.584V76.369z"/>
	<path fill="#fff" d="M367.467,123.112h17.396c3.366,0,7.736-2.433,7.736-9.413v-9.934h-24.803c-5.098,0-7.874,4.383-7.874,8.245
		v2.762C359.923,118.907,361.559,123.112,367.467,123.112 M356.611,76.369h23.854c13.494,0,21.89,9.165,21.89,21.79v10.718
		c0,12.683-7.008,21.793-21.093,21.793h-11.302c-25.702,0-26.664-34.339,0.708-34.339h21.868v-3.504c0-3.926-2.61-7.266-7.338-7.266
		h-28.588V76.369z"/>
	<path fill="#fff" d="M304.472,69.739c0,2.164-1.759,3.923-3.923,3.923h-2.205c-2.164,0-3.923-1.759-3.923-3.923v-1.944
		c0-2.164,1.759-3.923,3.923-3.923h2.205c2.164,0,3.923,1.759,3.923,3.923V69.739z"/>
	<path fill="#fff" d="M313.19,97.911c0-15.393,10.347-21.693,20.68-21.693h17.396v9.434h-20.474
		c-4.816,0-7.791,3.823-7.791,8.921v36.193h-9.715C313.287,130.766,313.19,115.238,313.19,97.911"/>
	<path fill="#fff" d="M409.528,76.149h9.7v36.19c0,7.035,3.298,10.759,7.929,10.759h24.149v7.599h-21.209
		c-10.319,0-20.673-6.307-20.673-21.697C409.425,91.673,409.528,76.149,409.528,76.149"/>
	<path fill="#585858" d="M109.403,12c-0.825,0-1.652,0.041-2.491,0.124c-2.59,0.254-11.356,0.983-21.717,7.792
		C64.896,32.838,48.342,43.433,28.04,56.355c6.452,6.521,12.903,13.054,19.354,19.574c18.567-11.756,37.131-23.518,55.706-35.259
		c12.199-8.354,20.958-10.498,26.86-10.498c6.156,0,9.21,2.336,9.801,2.418c-3.167-3.078-10.982-10.333-15.822-14.868
		C119.787,13.841,114.82,12,109.403,12"/>
	<path fill="#585858" d="M122.171,49.354c-4.854,0-11.515,4.741-14.764,7.118c-4.751,3.483-45.016,29.392-57.918,37.907
		c-3.734-3.215-5.565-4.974-6.297-5.582c-14.785,14.72-20.478,25.974-22.717,36.54c-2.319,10.924,4.483,15.651,7.135,18.798
		c5.101,6.073,14.695,14.758,14.768,14.758c0.007,0-0.086-0.097-0.295-0.288c-4.026-13.617,0.378-24.981,6.197-33.83
		c11.721-17.836,36.5-32.91,55.503-45.953c13.937-9.55,21.188-14.421,23.851-16.16C128.897,52.508,126.132,49.354,122.171,49.354"/>
	<path fill="#585858" d="M126.943,76.266c-20.282,14.651-45.84,29.395-55.901,39.014c-10.062,9.618-11.251,16.97-10.172,24.856
		c0.478,3.463,2.15,6.953,5.901,6.953c1.202,0,2.618-0.357,4.271-1.195c4.04-2.047,16.004-10.814,37.808-25.984
		C130.278,104.988,126.39,88.221,126.943,76.266"/>
</g>
</svg>

