<svg width="343" height="115" viewBox="0 0 343 115" fill="none" xmlns="http://www.w3.org/2000/svg">
<mask id="mask0_478_1015" style="mask-type:alpha" maskUnits="userSpaceOnUse" x="0" y="0" width="343" height="115">
<rect width="343" height="115" fill="#C4C4C4"/>
</mask>
<g mask="url(#mask0_478_1015)">
<path d="M165.609 58.0992V58.4046C165.424 62.2623 164.002 65.3806 160.457 67.1246C155.041 69.7607 147.518 67.2131 146.706 59.6021C146.353 56.2186 147.132 53.1726 149.752 50.866C152.654 48.3183 156.077 47.9004 159.63 49.1783C163.182 50.4561 164.894 53.0681 165.456 56.6204C165.537 57.1348 165.569 57.6492 165.609 58.0992ZM169.467 71.7619V34.3984H165.609V48.6157C164.906 47.9612 164.133 47.3871 163.302 46.9038C160.559 45.3292 157.369 44.7128 154.237 45.1518C151.105 45.4193 148.188 46.8535 146.063 49.1702C143.387 52.1198 142.519 55.664 142.808 59.5378C142.974 62.5805 144.229 65.4619 146.345 67.6551C150.363 71.7619 157.54 72.7826 162.796 69.9376C163.819 69.3923 164.765 68.7139 165.609 67.9203V71.7378H169.467V71.7619Z" fill="white" stroke="white" stroke-width="1.25" stroke-miterlimit="10"/>
<path d="M210.983 57.9545C210.927 62.423 209.585 66.0556 206.209 68.748C203.384 70.926 199.819 71.9125 196.276 71.4966C193.194 71.3295 190.277 70.0535 188.062 67.9041C185.804 65.6793 184.465 62.6875 184.309 59.5216C184.019 55.672 184.879 52.1357 187.524 49.1862C189.662 46.8575 192.602 45.4223 195.753 45.1678C198.838 44.7323 201.98 45.3195 204.698 46.8394C206.395 47.7896 207.836 49.1358 208.899 50.7633C209.963 52.3908 210.617 54.2514 210.806 56.1863C210.903 56.8695 210.927 57.5606 210.959 57.9946L210.983 57.9545ZM207.117 58.2438C207.077 57.7937 207.045 57.2311 206.965 56.6766C206.418 53.0841 204.554 50.4078 201.114 49.1701C197.497 47.8842 194.05 48.3664 191.14 50.9784C188.617 53.2689 187.861 56.2667 188.207 59.5779C189.01 67.3335 196.726 69.8651 202.151 67.0602C205.647 65.26 206.973 62.1176 207.117 58.2197" fill="white"/>
<path d="M207.117 58.2438C207.077 57.7937 207.045 57.2311 206.965 56.6766C206.418 53.0841 204.554 50.4078 201.114 49.1701C197.497 47.8842 194.05 48.3664 191.14 50.9784C188.617 53.2689 187.861 56.2667 188.207 59.5779C189.01 67.3335 196.726 69.8651 202.151 67.0602C205.647 65.26 206.973 62.1176 207.117 58.2197V58.2438ZM210.983 57.9545C210.927 62.423 209.585 66.0556 206.209 68.748C203.384 70.926 199.819 71.9125 196.276 71.4966C193.194 71.3295 190.277 70.0535 188.062 67.9041C185.804 65.6793 184.465 62.6875 184.309 59.5216C184.019 55.672 184.879 52.1357 187.524 49.1862C189.662 46.8575 192.602 45.4223 195.753 45.1678C198.838 44.7323 201.98 45.3195 204.698 46.8394C206.395 47.7896 207.836 49.1358 208.899 50.7633C209.963 52.3908 210.617 54.2514 210.806 56.1863C210.903 56.8695 210.927 57.5606 210.959 57.9946L210.983 57.9545V57.9545Z" stroke="white" stroke-width="1.25" stroke-miterlimit="10"/>
<path d="M180.179 71.7538H176.321V45.3848H180.171L180.179 71.7538Z" fill="white" stroke="white" stroke-width="1.25" stroke-miterlimit="10"/>
<path d="M175.581 37.8384C175.556 37.4844 175.605 37.1292 175.726 36.7955C175.846 36.4618 176.035 36.157 176.281 35.9007C176.526 35.644 176.822 35.4414 177.15 35.3057C177.477 35.1701 177.83 35.1045 178.185 35.113C178.535 35.1171 178.88 35.1919 179.2 35.3328C179.521 35.4737 179.809 35.6779 180.049 35.9331C180.288 36.1883 180.474 36.4893 180.594 36.8179C180.714 37.1466 180.767 37.4961 180.748 37.8456C180.77 38.2003 180.717 38.5556 180.593 38.8886C180.469 39.2217 180.276 39.5251 180.028 39.7794C179.78 40.0337 179.481 40.2332 179.151 40.3653C178.821 40.4973 178.467 40.5588 178.112 40.546C177.763 40.5528 177.416 40.486 177.094 40.35C176.771 40.2139 176.482 40.0115 176.243 39.7561C176.004 39.5006 175.822 39.1978 175.708 38.8673C175.594 38.5367 175.55 38.1859 175.581 37.8376" fill="white"/>
<path d="M175.581 37.8384C175.556 37.4844 175.605 37.1292 175.726 36.7955C175.846 36.4618 176.035 36.157 176.281 35.9007C176.526 35.644 176.822 35.4414 177.15 35.3057C177.477 35.1701 177.83 35.1045 178.185 35.113C178.535 35.1171 178.88 35.1919 179.2 35.3328C179.521 35.4737 179.809 35.6779 180.049 35.9331C180.288 36.1883 180.474 36.4893 180.594 36.8179C180.714 37.1466 180.767 37.4961 180.748 37.8456C180.77 38.2003 180.717 38.5556 180.593 38.8886C180.469 39.2217 180.276 39.5251 180.028 39.7794C179.78 40.0337 179.481 40.2332 179.151 40.3653C178.821 40.4973 178.467 40.5588 178.112 40.546C177.763 40.5528 177.416 40.486 177.094 40.35C176.771 40.2139 176.482 40.0115 176.243 39.7561C176.004 39.5006 175.822 39.1978 175.708 38.8673C175.594 38.5367 175.55 38.1859 175.581 37.8376" stroke="white" stroke-width="1.25" stroke-miterlimit="10"/>
<path d="M265.595 58.1638C265.443 63.3557 263.538 67.4625 258.917 69.97C253.66 72.8151 246.467 71.7944 242.465 67.6795C240.345 65.4773 239.092 62.5831 238.937 59.5301C238.648 55.6563 239.516 52.096 242.152 49.1464C244.28 46.83 247.199 45.3961 250.333 45.128C253.461 44.6816 256.647 45.2896 259.391 46.8559C261.058 47.8112 262.474 49.1514 263.518 50.7648C264.562 52.3782 265.206 54.2179 265.394 56.1305C265.491 56.8377 265.515 57.553 265.563 58.1638H265.595ZM261.705 58.1638C261.657 57.6816 261.633 57.119 261.545 56.5565C260.99 52.9961 259.134 50.3439 255.726 49.1063C252.166 47.8204 248.742 48.2463 245.841 50.802C243.221 53.1006 242.441 56.1546 242.803 59.5462C243.606 67.1732 251.137 69.7289 256.546 67.0767C260.186 65.3006 261.561 62.1099 261.705 58.1558" fill="white"/>
<path d="M261.705 58.1638C261.657 57.6816 261.633 57.119 261.545 56.5565C260.99 52.9961 259.134 50.3439 255.726 49.1063C252.166 47.8204 248.742 48.2463 245.841 50.802C243.221 53.1006 242.441 56.1546 242.803 59.5462C243.606 67.1732 251.137 69.7289 256.546 67.0767C260.186 65.3006 261.561 62.1099 261.705 58.1558V58.1638ZM265.595 58.1638C265.443 63.3557 263.538 67.4625 258.917 69.97C253.66 72.8151 246.467 71.7944 242.465 67.6795C240.345 65.4773 239.092 62.5831 238.937 59.5301C238.648 55.6563 239.516 52.096 242.152 49.1464C244.28 46.83 247.199 45.3961 250.333 45.128C253.461 44.6816 256.647 45.2896 259.391 46.8559C261.058 47.8112 262.474 49.1514 263.518 50.7648C264.562 52.3782 265.206 54.2179 265.394 56.1305C265.491 56.8377 265.515 57.553 265.563 58.1638H265.595V58.1638Z" stroke="white" stroke-width="1.25" stroke-miterlimit="10"/>
<path d="M106.168 58.5734V58.6698C105.983 62.5356 104.56 65.6539 101.016 67.4059C95.5994 70.0501 88.0768 67.4943 87.2651 59.8673C86.9034 56.4838 87.6911 53.4378 90.3111 51.1232C93.2124 48.5675 96.6361 48.1496 100.188 49.4274C103.741 50.7053 105.453 53.3173 106.015 56.8857C106.104 57.4322 106.128 57.9947 106.176 58.493C106.18 58.5252 106.18 58.5573 106.176 58.5895L106.168 58.5734ZM110.034 58.5895V58.477C109.985 57.8581 109.961 57.1428 109.865 56.4356C109.677 54.5237 109.035 52.6844 107.992 51.0711C106.949 49.4578 105.536 48.1172 103.869 47.161C101.134 45.5951 97.9571 44.9817 94.8358 45.417C91.7017 45.6849 88.7822 47.1189 86.6543 49.4355C83.978 52.393 83.11 55.9453 83.4395 59.8272C83.5993 62.8783 84.8549 65.7692 86.9758 67.9685C90.9942 72.0914 98.1712 73.1121 103.427 70.259C104.449 69.7091 105.395 69.0283 106.24 68.2337V71.6735H110.098L110.034 58.5895ZM290.299 58.0992V58.4046C290.115 62.2623 288.692 65.3806 285.148 67.1247C279.731 69.7608 272.208 67.2131 271.397 59.6021C271.043 56.2186 271.823 53.1726 274.443 50.866C277.344 48.3183 280.768 47.9004 284.32 49.1783C287.872 50.4561 289.584 53.0681 290.147 56.6204C290.227 57.1348 290.259 57.6492 290.299 58.0992ZM294.173 71.7619L294.149 34.3984H290.291V48.6157C289.59 47.9591 288.816 47.3848 287.985 46.9038C285.244 45.3304 282.057 44.714 278.927 45.1518C275.796 45.421 272.879 46.8549 270.754 49.1702C268.077 52.1198 267.209 55.664 267.499 59.5378C267.664 62.5805 268.92 65.4619 271.035 67.6551C275.053 71.7619 282.23 72.7826 287.487 69.9376C288.509 69.3927 289.455 68.7143 290.299 67.9203V71.6896L294.173 71.7619Z" fill="white" stroke="white" stroke-width="1.25" stroke-miterlimit="10"/>
<path d="M226.326 48.3668C220.909 48.3668 217.036 52.337 217.036 58.0914C217.036 63.8458 220.909 67.8562 226.326 67.8562C229.758 67.8562 232.587 66.6668 234.427 64.4807L236.662 66.7632C234.323 69.5922 230.698 71.2799 226.173 71.2799C218.579 71.2799 213.21 65.8711 213.21 58.0914C213.21 50.3117 218.603 44.9189 226.173 44.9189C230.401 44.9189 233.881 46.3575 236.26 48.7927L234.13 51.469C233.099 50.4609 231.879 49.6675 230.539 49.135C229.2 48.6024 227.768 48.3413 226.326 48.3668Z" fill="white"/>
<path d="M226.326 48.3668C220.909 48.3668 217.036 52.337 217.036 58.0914C217.036 63.8458 220.909 67.8562 226.326 67.8562C229.758 67.8562 232.587 66.6668 234.427 64.4807L236.662 66.7632C234.323 69.5922 230.698 71.2799 226.173 71.2799C218.579 71.2799 213.21 65.8711 213.21 58.0914C213.21 50.3117 218.603 44.9189 226.173 44.9189C230.401 44.9189 233.881 46.3575 236.26 48.7927L234.13 51.469C233.099 50.4609 231.879 49.6675 230.539 49.135C229.2 48.6024 227.768 48.3413 226.326 48.3668" stroke="white" stroke-width="1.25" stroke-miterlimit="10"/>
<path d="M139.038 46.8799V71.7219H135.156V68.2339C132.833 70.428 129.94 71.8264 125.214 71.8746C119.098 71.8746 115.417 67.9928 115.417 61.6839V46.8799H119.299V60.6873C119.299 65.3648 121.59 68.3866 126.115 68.3866C131.539 68.2902 135.156 64.0708 135.156 58.4048V46.8799H139.038ZM322.217 59.8836H300.518C301.168 65.1317 304.954 68.5554 310.162 68.5554C311.689 68.5876 313.207 68.3045 314.62 67.7237C316.034 67.1429 317.312 66.277 318.375 65.1799L320.545 67.4463C319.175 68.8909 317.513 70.0288 315.671 70.7852C313.829 71.5415 311.847 71.8991 309.856 71.8345C302.036 71.8345 296.644 66.3372 296.644 58.4209C296.644 50.5046 302.085 45.0555 309.808 45.0073C318.375 45.0073 322.619 50.9064 322.209 59.8836H322.217ZM318.681 56.7573C318.432 51.6136 315 48.2864 309.84 48.2864C304.681 48.2864 301.088 51.5815 300.534 56.7573H318.681Z" fill="white" stroke="white" stroke-width="1.25" stroke-miterlimit="10"/>
<path d="M333.532 48.2864C330.59 48.2864 328.348 49.3312 328.348 51.8146C328.348 57.7218 342.999 54.6999 342.999 64.087C342.999 69.1984 338.418 71.4889 333.355 71.4889C329.66 71.5592 326.071 70.2465 323.293 67.808L324.788 64.9791C327.204 67.1098 330.311 68.292 333.532 68.3063C336.626 68.3063 339.158 67.1169 339.158 64.4808C339.302 58.1236 324.603 61.3544 324.651 52.112C324.651 47.1452 328.991 45.0074 333.773 45.0074C336.737 44.9988 339.642 45.8351 342.148 47.4185L340.653 50.3921C338.514 49.0578 336.053 48.3299 333.532 48.2864Z" fill="white"/>
<path d="M333.532 48.2864C330.59 48.2864 328.348 49.3312 328.348 51.8146C328.348 57.7218 342.999 54.6999 342.999 64.087C342.999 69.1984 338.418 71.4889 333.355 71.4889C329.66 71.5592 326.071 70.2465 323.293 67.808L324.788 64.9791C327.204 67.1098 330.311 68.292 333.532 68.3063C336.626 68.3063 339.158 67.1169 339.158 64.4808C339.302 58.1236 324.603 61.3544 324.651 52.112C324.651 47.1452 328.991 45.0074 333.773 45.0074C336.737 44.9988 339.642 45.8351 342.148 47.4185L340.653 50.3921C338.514 49.0578 336.053 48.3299 333.532 48.2864" stroke="white" stroke-width="1.25" stroke-miterlimit="10"/>
<path d="M42.5332 41.3424C42.5332 41.3424 48.4966 35.3549 59.6437 35.3549C63.2424 35.2901 66.7965 36.1584 69.9599 37.8753C73.1232 39.5922 75.788 42.0991 77.6946 45.1519L68.9344 51.5814C68.9344 51.5814 66.5233 46.6387 59.4107 46.6387C54.7091 46.6387 50.4254 49.2266 49.3565 53.4299C47.3312 45.3046 42.5332 41.3424 42.5332 41.3424ZM56.0577 70.7253C56.0738 72.7835 56.3446 74.8321 56.8614 76.8253C57.3436 78.6473 57.9946 80.4202 58.8063 82.1216C58.8063 82.1216 72.4047 82.9253 78.2716 71.979L69.3025 66.0478C69.3025 66.0478 65.7662 73.9722 56.0577 70.7574" fill="#32A2DB"/>
<path d="M54.5785 70.4119C50.3109 68.258 48.4946 63.1787 48.4946 59.0478C48.4946 46.1887 38.4404 35.7408 24.3277 35.7408C10.5524 35.7167 0 43.2553 0 59.8595C0 81.3903 25.6055 88.2618 40.6024 76.5682C37.3941 73.1127 35.2606 68.7983 34.4622 64.1512C30.709 73.9803 18.2839 73.9964 14.603 66.4015C10.7453 58.445 13.1323 47.1933 24.2473 47.1933C32.1074 47.1933 35.1292 53.2451 35.1292 58.445C35.1292 71.2076 43.8332 82.1297 56.9976 82.1297C56.2103 80.2831 55.5864 78.371 55.1331 76.4155C54.7529 74.4372 54.5672 72.4264 54.5785 70.4119Z" fill="#585858"/>
</g>
</svg>
