<svg width="343" height="115" viewBox="0 0 343 115" fill="none" xmlns="http://www.w3.org/2000/svg">
<mask id="mask0_478_989" style="mask-type:alpha" maskUnits="userSpaceOnUse" x="0" y="0" width="343" height="115">
<rect width="343" height="115" fill="#C4C4C4"/>
</mask>
<g mask="url(#mask0_478_989)">
<path d="M100.513 21L78.1953 66.1917L55.8722 21H48.1125L74.4827 74.3502H81.9081L108.272 21H100.513ZM196.538 21L174.215 66.1917L151.898 21H144.138L170.508 74.3502L160.631 94.7202H168.191L204.297 21H196.538ZM26.37 21L0 74.3502H7.7597L12.0706 65.6227H38.5874L35.8894 59.4115H15.1382L30.0828 29.1644L52.4118 74.3502H60.1656L33.7954 21H26.37ZM227.013 21H219.582L193.219 74.3502H200.983L205.289 65.6227H231.806L229.108 59.4115H208.357L223.301 29.1644L245.619 74.3502H253.378L227.013 21Z" fill="white"/>
<path fill-rule="evenodd" clip-rule="evenodd" d="M96.4189 74.3502L122.789 21H130.209L156.579 74.3502H148.819L126.502 29.1644L111.557 59.4115H132.303L135.001 65.6227H108.49L104.179 74.3502H96.4189ZM196.539 89.3534C196.234 88.3506 195.472 88.0162 194.463 88.0162C192.925 88.0162 192.029 88.8666 192.029 90.3505C192.029 91.8345 192.92 92.6732 194.463 92.6732C195.565 92.6732 196.409 92.0749 196.539 91.1248H199.114C198.655 93.8169 196.732 94.427 194.251 94.427C191.389 94.427 189.448 93.2069 189.448 90.3448C189.448 87.4824 191.459 86.2683 194.463 86.2683C196.392 86.2683 198.639 86.849 199.114 89.3534H196.539ZM201.647 90.3389C201.647 87.4767 203.659 86.2626 206.662 86.2626C209.665 86.2626 211.677 87.4767 211.677 90.3389C211.677 93.201 209.659 94.4211 206.662 94.4211C203.665 94.4211 201.647 93.201 201.647 90.3389ZM204.228 90.3446C204.228 91.8285 205.113 92.6673 206.662 92.6673C208.205 92.6673 209.102 91.8285 209.102 90.3446C209.102 88.8608 208.205 88.022 206.662 88.022C205.113 88.022 204.228 88.8608 204.228 90.3446Z" fill="white"/>
<path fill-rule="evenodd" clip-rule="evenodd" d="M223.703 86.6845C224.248 86.4367 224.844 86.3223 225.441 86.3507C226.967 86.3507 228.451 86.9958 228.463 88.9958V94.1455H225.97V89.5824C225.97 88.5676 225.16 88.2803 224.439 88.2803C223.407 88.2803 222.556 88.8492 222.556 90.0398V94.1455H220.064V89.5824C220.064 88.5676 219.249 88.2803 218.562 88.2803C217.494 88.2803 216.65 88.8492 216.65 90.0398V94.1455H214.151V86.55H216.557V87.6528H216.591C217.037 87.0076 218.227 86.3507 219.688 86.3507C221.131 86.3507 221.928 86.9137 222.31 87.7759C222.681 87.3064 223.159 86.9322 223.703 86.6845ZM240.813 86.6845C241.358 86.4367 241.954 86.3223 242.551 86.3507C244.081 86.3507 245.566 86.9958 245.571 88.9958V94.1455H243.079V89.5824C243.079 88.5676 242.269 88.2803 241.549 88.2803C240.516 88.2803 239.665 88.8492 239.665 90.0398V94.1455H237.172V89.5824C237.172 88.5676 236.357 88.2803 235.665 88.2803C234.604 88.2803 233.754 88.8492 233.754 90.0398V94.1455H231.261V86.55H233.665V87.6528H233.7C234.146 87.0076 235.337 86.3507 236.797 86.3507C238.24 86.3507 239.038 86.9137 239.419 87.7759C239.79 87.3064 240.268 86.9322 240.813 86.6845ZM254.346 92.4974C255.696 92.4974 256.457 91.7467 256.457 90.339V86.5383H258.95V94.1339H256.54V93.1074H256.516C256.059 93.7526 254.868 94.4212 253.414 94.4212C252.123 94.4212 250.152 93.9227 250.152 91.688V86.5383H252.645V90.9256C252.645 91.9872 253.202 92.4974 254.346 92.4974ZM264.792 87.6528C265.238 87.0076 266.428 86.3507 267.894 86.3507C269.179 86.3507 271.144 86.8491 271.149 89.0956V94.1455H268.651V89.8405C268.651 88.7906 268.1 88.2803 266.986 88.2803C265.824 88.2803 264.845 88.861 264.845 90.4739V94.1455H262.352V86.55H264.756V87.6528H264.792ZM278.229 94.1396H275.73V86.5442H278.229V94.1396ZM278.229 85.6174H275.73V83.8579H278.229V85.6174ZM288.359 89.3537C288.06 88.3507 287.296 88.0163 286.289 88.0163C284.74 88.0163 283.848 88.8668 283.848 90.3508C283.848 91.8347 284.74 92.6733 286.289 92.6733C287.391 92.6733 288.235 92.0752 288.359 91.1249H290.933C290.481 93.8171 288.558 94.4271 286.077 94.4271C283.215 94.4271 281.267 93.2071 281.267 90.3449C281.267 87.4827 283.279 86.2686 286.289 86.2686C288.217 86.2686 290.47 86.8491 290.933 89.3537H288.359ZM298.341 86.2627C301.913 86.2627 302.676 87.4182 302.676 88.8375H302.669V92.603C302.652 93.1283 302.75 93.651 302.957 94.1339H300.459C300.368 93.8722 300.311 93.6002 300.289 93.3244C299.438 94.1808 297.848 94.4212 296.728 94.4212C294.752 94.4212 293.367 93.7232 293.367 91.9519C293.367 90.1162 294.992 89.7172 296.505 89.6176L299.162 89.4358C299.93 89.377 300.183 89.248 300.183 88.6381C300.183 88.0398 299.667 87.7349 298.224 87.7349C297.156 87.7349 296.611 87.817 296.259 88.8668H293.849C294.148 86.5265 296.301 86.2627 298.341 86.2627ZM297.608 92.9487C298.864 92.9487 300.272 92.3329 300.272 91.0601V90.4326C299.802 90.6271 299.301 90.7403 298.793 90.7669L297.35 90.89C296.47 90.9546 296.025 91.2008 296.025 91.8812C296.025 92.5616 296.671 92.9487 297.608 92.9487Z" fill="white"/>
<path fill-rule="evenodd" clip-rule="evenodd" d="M309.73 88.2158V91.7583C309.73 92.3508 309.913 92.5502 310.558 92.5502C310.936 92.5502 311.273 92.529 311.603 92.5082C311.661 92.5046 311.719 92.5009 311.777 92.4974V94.1631C311.309 94.2218 310.375 94.3039 309.825 94.3039C307.461 94.3039 307.232 93.43 307.232 92.0575V88.2158H305.654V86.5442H307.232V84.1981H309.73V86.5442H311.743V88.2158H309.73ZM318.265 85.6174H315.777V83.8579H318.265V85.6174ZM318.265 94.1396H315.777V86.5442H318.265V94.1396ZM321.321 90.339C321.321 87.4768 323.327 86.2627 326.336 86.2627C329.333 86.2627 331.344 87.4768 331.344 90.339C331.344 93.2013 329.338 94.4212 326.336 94.4212C323.332 94.4212 321.321 93.2013 321.321 90.339ZM323.896 90.3446C323.896 91.8285 324.788 92.6673 326.336 92.6673C327.873 92.6673 328.77 91.8285 328.77 90.3446C328.77 88.8608 327.878 88.022 326.336 88.022C324.788 88.022 323.896 88.8608 323.896 90.3446Z" fill="white"/>
<path d="M339.739 86.3506C338.278 86.3506 337.088 87.0075 336.642 87.6527H336.607V86.5501H334.202V94.1456H336.701V90.4738C336.701 88.8609 337.674 88.2802 338.835 88.2802C339.95 88.2802 340.508 88.7905 340.508 89.8404V94.1456H343.001V89.0955C342.994 86.8492 341.029 86.3506 339.739 86.3506Z" fill="white"/>
</g>
</svg>
