<svg width="2500" height="2500" viewBox="0 0 2500 2500" fill="none" xmlns="http://www.w3.org/2000/svg">
<path fill-rule="evenodd" clip-rule="evenodd" d="M389.924 1442.25H307.45L344.945 1269.55H352.429L389.924 1442.25V1442.25ZM270.706 1577.05H425.877L444.631 1647.64H662.069L460.415 1081.04H233.211L36.7578 1647.64H254.209L270.706 1577.05V1577.05ZM1000.31 1492.82H994.316L915.498 1647.64H681.303L879.468 1346.33L701.575 1081.04H933.513L992.798 1208.06H997.286L1054.33 1081.04H1286.24L1109.11 1346.33L1311.04 1647.64H1076.84L1000.31 1492.82ZM1614.53 1656.46C1506.57 1656.46 1475.87 1605.51 1475.87 1493.99V1130.8H1341.71V1082.63H1475.87V903.033L1536.06 886.535V1082.64H1714.6V1130.81H1536.06V1459.85C1536.06 1573.71 1555.39 1602.14 1629.29 1602.14C1658.9 1602.14 1689.6 1597.6 1714.6 1590.77V1646.27C1686.17 1651.92 1648.65 1656.46 1614.53 1656.46V1656.46ZM2178.77 1282.13H1860C1875.94 1184.28 1938.58 1120.55 2026.19 1120.55C2122.97 1120.55 2181.05 1187.68 2178.77 1282.13ZM2244.7 1297.91C2244.7 1179.7 2183.31 1073.86 2030.73 1073.86C1879.37 1073.86 1789.73 1199.07 1789.73 1366.82C1789.73 1564.08 1877.06 1656.3 2044.44 1656.3C2114.98 1656.3 2175.33 1643.71 2224.24 1623.17L2218.56 1567.46C2178.77 1587.85 2114.98 1603.74 2054.68 1603.74C1919.22 1603.74 1846.36 1525.52 1854.31 1330.58H2243.56C2244.7 1315.93 2244.7 1304.65 2244.7 1297.91V1297.91ZM2463.25 1647.64H2403.05V897.145L2304.11 885.744V855.434L2463.25 843.554V1647.64V1647.64Z" fill="white"/>
</svg>
