<svg width="343" height="115" viewBox="0 0 343 115" fill="none" xmlns="http://www.w3.org/2000/svg">
<mask id="mask0_478_1010" style="mask-type:alpha" maskUnits="userSpaceOnUse" x="0" y="0" width="343" height="115">
<rect width="343" height="115" fill="#C4C4C4"/>
</mask>
<g mask="url(#mask0_478_1010)">
<path d="M316.524 24.3379C300.768 22.5676 282.964 27.8804 269.633 37.2959C282.054 30.8356 296.04 27.9932 309.997 29.0923C332.929 31.5162 342.624 46.9915 331.625 63.5834C320.626 80.1753 293.218 91.8298 270.285 89.4059C268.436 89.1938 266.6 88.8827 264.785 88.4741C268.488 89.9782 272.376 90.9812 276.344 91.4563C299.556 94.1603 327.338 81.2957 338.43 62.743C349.523 44.1903 339.736 26.8533 316.516 24.336" fill="#CD1422"/>
<path d="M100.314 57.8039C102.995 57.5375 105.576 56.6431 107.847 55.1932C108.639 54.6982 109.295 54.0119 109.753 53.1974C110.21 52.3829 110.456 51.4665 110.467 50.5322C110.468 49.403 110.062 48.3114 109.324 47.4566C108.446 46.5342 107.387 45.8042 106.212 45.3128C105.627 45.0546 105.026 44.8369 104.411 44.6611C103.685 44.461 102.946 44.3051 102.201 44.1942C101.381 44.1008 100.318 44.0037 99.1709 43.9141C98.0238 43.8245 77.7122 43.8283 77.7122 43.8283V71.0401H88.5206V46.2446C88.5206 46.2446 93.679 46.2446 94.9901 46.4352C96.0523 46.5092 97.0993 46.7285 98.1019 47.0869C98.8705 47.3862 99.5084 47.9478 99.9027 48.6723C100.335 49.5386 100.532 50.5033 100.474 51.4697C100.521 52.3251 100.333 53.1769 99.9296 53.9328C99.5265 54.6886 98.924 55.3196 98.1876 55.7573C96.7201 56.8216 94.9167 57.3184 93.1112 57.156L106.05 71.2325C107.033 71.2325 108.015 71.1391 108.998 71.1391H111.372C112.356 71.1391 113.337 71.1391 114.32 71.2325C111.942 68.982 109.486 66.8459 107.104 64.5992C104.714 62.4583 102.445 60.1866 100.307 57.7944L100.314 57.8039ZM15.6359 48.8534C17.0893 47.8277 18.7309 47.0992 20.4666 46.7096C22.2002 46.2281 23.9897 45.9776 25.7889 45.9645C27.8647 45.9626 29.9311 46.2447 31.9306 46.803C33.797 47.3907 35.5438 48.3063 37.089 49.507H37.9903C38.0762 48.8071 38.2412 48.1193 38.4819 47.4566C38.7048 46.7566 39.0367 46.0962 39.4652 45.4995C38.5639 45.2194 37.6645 44.9393 36.7631 44.7545C35.6979 44.5639 34.5526 44.2876 33.4055 44.1028C32.2583 43.9179 30.9492 43.8226 29.7201 43.7216C28.491 43.6206 27.2638 43.5311 26.1166 43.5311C22.7958 43.5289 19.4808 43.8094 16.2076 44.3695C13.3116 44.8296 10.498 45.7091 7.85543 46.9802C5.59213 48.0414 3.62388 49.6419 2.12344 51.6412C0.647853 53.6689 -0.0970836 56.1368 0.010151 58.6423C0.00479798 60.5099 0.576494 62.3334 1.64705 63.8636C2.92017 65.577 4.53774 67.0051 6.39576 68.0559C8.77928 69.3508 11.3514 70.2633 14.0181 70.7599C17.3861 71.4432 20.8188 71.7557 24.2549 71.6918C28.7819 71.768 33.2987 71.2347 37.6835 70.1063C37.7711 69.5271 37.9365 68.9625 38.1751 68.4275C38.4239 67.8712 38.7257 67.3403 39.0765 66.8421L38.2571 66.5619C37.477 67.0401 36.6548 67.4457 35.8008 67.7739C34.8082 68.1384 33.7968 68.4494 32.7709 68.7057C31.7241 68.9826 30.6557 69.17 29.5772 69.266C28.5201 69.4223 27.4515 69.486 26.3834 69.4565C24.4805 69.4701 22.5832 69.2512 20.7334 68.8048C18.9693 68.3938 17.2828 67.7015 15.7388 66.7544C14.2887 65.8568 13.0576 64.6465 12.1354 63.2119C11.1387 61.659 10.6517 59.8336 10.7424 57.9906C10.664 56.1013 11.1183 54.228 12.0534 52.5845C12.9418 51.0796 14.1683 49.8021 15.6359 48.8534ZM139.209 43.8283C139.209 43.8283 134.624 43.9217 134.215 43.8283C133.313 45.3204 116.035 70.4893 115.54 71.2363H121.927L134.297 51.464L146.826 71.2268H157.552L139.209 43.8283ZM46.2682 44.0189V71.2268H71.7344C71.6524 70.265 71.6524 69.2979 71.7344 68.336H56.6669C56.503 66.7506 56.6669 58.2688 56.6669 58.2688H65.8385V55.5667H56.8308V47.449H71.7344V43.9998L46.2682 44.0189ZM299.954 44.0189V62.8499L271.458 44.0189H265.563C265.563 44.0189 265.645 71.0534 265.563 71.2401H270.721C270.639 70.96 270.721 53.1543 270.803 52.4092C280.958 58.8424 299.217 71.2401 299.217 71.2401H305.441L305.523 44.0189H299.954ZM251.968 47.0011C249.483 45.7714 246.841 44.8891 244.115 44.3791C240.876 43.7453 237.581 43.4332 234.281 43.4472C230.784 43.4461 227.298 43.8211 223.882 44.5658C221.08 45.1371 218.395 46.1769 215.939 47.6414C213.955 48.7647 212.226 50.2884 210.863 52.1157C209.678 53.703 209.046 55.6346 209.062 57.6152C208.997 59.9166 209.687 62.1759 211.027 64.0485C212.431 65.9077 214.255 67.4093 216.349 68.4313C218.869 69.6289 221.542 70.4758 224.291 70.9486C227.513 71.4746 230.773 71.7238 234.037 71.6937C237.449 71.7262 240.854 71.3824 244.191 70.6685C246.96 70.0783 249.633 69.1054 252.134 67.7777C254.152 66.6371 255.931 65.1179 257.374 63.3034C258.606 61.7004 259.269 59.7323 259.257 57.7105C259.282 55.4726 258.594 53.2849 257.292 51.464C255.944 49.5294 254.108 47.9858 251.97 46.9897L251.968 47.0011ZM247.221 62.3716C246.454 63.8935 245.364 65.2299 244.028 66.2875C242.642 67.3669 241.056 68.1591 239.361 68.6181C237.515 69.0946 235.617 69.3448 233.711 69.3631C231.949 69.3656 230.192 69.1777 228.47 68.8029C226.896 68.4535 225.399 67.8221 224.049 66.9392C222.753 66.0373 221.71 64.8175 221.02 63.3968C220.233 61.7379 219.842 59.9195 219.876 58.084C219.869 56.4566 220.2 54.8455 220.849 53.3529C221.497 51.8603 222.449 50.5188 223.644 49.4136C224.945 48.2378 226.479 47.3484 228.146 46.803C230.092 46.1245 232.146 45.8087 234.206 45.8711C236.167 45.8841 238.119 46.1343 240.02 46.6162C241.644 47.0826 243.17 47.8407 244.523 48.8534C245.726 49.757 246.73 50.8994 247.471 52.2091C248.201 53.6525 248.567 55.2528 248.536 56.8701C248.473 58.7728 248.027 60.6433 247.225 62.3697L247.221 62.3716ZM192.354 59.0158C192.354 59.0158 192.682 68.2446 192.6 68.6181C192.215 68.7991 191.796 68.8947 191.371 68.8982C190.749 69.0118 190.12 69.0755 189.488 69.0887C188.775 69.1095 188.064 69.1731 187.359 69.2793C186.707 69.3532 186.051 69.3844 185.395 69.3727C183.103 69.3748 180.82 69.0931 178.597 68.5342C176.802 68.0757 175.109 67.2817 173.609 66.1942C172.288 65.2966 171.217 64.0775 170.497 62.6517C169.778 61.3039 169.411 59.7962 169.432 58.2688C169.409 56.3645 169.92 54.4918 170.907 52.8627C171.858 51.321 173.146 50.0143 174.674 49.0401C176.294 47.9507 178.097 47.1613 179.996 46.7096C181.98 46.2275 184.014 45.9775 186.056 45.9645C188.668 45.8721 191.275 46.251 193.753 47.0831C195.677 47.6814 197.46 48.6649 198.993 49.9738H199.894C200.116 49.301 200.39 48.6466 200.714 48.0168C201.041 47.3651 201.369 46.7115 201.697 45.9664C199.331 45.2354 196.925 44.6443 194.49 44.1961C191.619 43.7444 188.716 43.5265 185.81 43.5444C182.187 43.5306 178.569 43.8424 175.002 44.4762C171.982 44.9569 169.054 45.9005 166.322 47.2736C164.078 48.3657 162.116 49.9608 160.59 51.9347C159.176 53.8443 158.454 56.1783 158.543 58.5528C158.506 60.5923 159.204 62.5772 160.508 64.1457C162.019 65.8814 163.855 67.3054 165.912 68.3379C168.516 69.567 171.271 70.4449 174.106 70.9486C177.536 71.5822 181.017 71.8941 184.505 71.8804C187.363 71.8804 190.319 71.6899 193.27 71.4136C196.222 71.1372 199.166 70.7618 202.036 70.2016C201.954 70.011 202.364 59.2007 202.364 59.2007L192.354 59.0158Z" fill="white"/>
</g>
</svg>
