<svg width="652" height="92" viewBox="0 0 652 92" fill="none" xmlns="http://www.w3.org/2000/svg">
<g clip-path="url(#clip0_338_3228)">
<path d="M612.801 82.0998H611.001V79.8998H612.301C613.001 79.8998 614.201 79.9998 614.201 80.8998C614.201 81.8998 613.601 82.0998 612.801 82.0998ZM616.501 80.8998C616.501 78.8998 615.301 78.2998 612.401 78.2998H608.801V87.6998H611.101V83.7998H611.801L614.001 87.6998H616.301L613.801 83.5998C615.401 83.4998 616.501 82.8998 616.501 80.8998Z" fill="white"/>
<path d="M612.402 89.3998C608.902 89.3998 606.102 86.6998 606.102 82.8998C606.102 79.0998 608.902 76.3998 612.402 76.3998C615.802 76.3998 618.702 78.9998 618.702 82.8998C618.702 86.7998 615.802 89.3998 612.402 89.3998ZM612.402 74.2998C607.602 74.2998 603.102 77.4998 603.102 82.9998C603.102 88.4998 607.602 91.6998 612.402 91.6998C617.202 91.6998 621.802 88.4998 621.802 82.9998C621.702 77.4998 617.202 74.2998 612.402 74.2998Z" fill="white"/>
<path d="M83.9019 55.7998C81.2019 64.1998 75.5019 70.6998 65.9019 70.6998C50.7019 70.6998 50.1018 59.0998 52.3018 46.7998C55.4018 29.8998 63.3019 21.1998 73.8019 21.1998C83.1019 21.1998 88.1019 26.3998 87.3019 35.5998H115.602C117.302 12.9998 104.202 -0.200195 76.4019 -0.200195C51.0019 -0.200195 27.8019 17.4998 22.6019 45.8998C17.4019 74.3998 32.3019 92.1998 62.4019 92.1998C86.4019 92.1998 105.702 78.5998 112.502 55.8998H83.9019V55.7998Z" fill="white"/>
<path d="M125.301 2L109.301 89.8H135.501L151.601 2H125.301Z" fill="white"/>
<path d="M186.402 39.6006C192.602 39.6006 197.102 44.8006 196.002 50.7006H172.102C173.302 43.8006 178.502 39.6006 186.402 39.6006ZM180.402 76.2006C173.502 76.2006 168.302 71.2006 169.702 63.6006H219.802C224.402 40.4006 212.602 24.1006 188.102 24.1006C166.902 24.1006 148.102 37.5006 144.302 58.5006C140.402 80.0006 154.702 91.7006 175.902 91.7006C191.302 91.7006 208.902 86.5006 216.402 70.6006H191.302C188.702 74.3006 184.602 76.2006 180.402 76.2006Z" fill="white"/>
<path d="M253.6 77.3006C248.4 77.3006 245.7 75.1006 246.3 71.9006C247.8 63.6006 258.8 65.5006 268.1 61.5006C267.1 70.3006 262.8 77.3006 253.6 77.3006ZM296.4 50.6006C299.2 35.4006 299.3 24.1006 268 24.1006C241.9 24.1006 230.4 32.0006 228 45.6006H253.3C254.9 40.1006 260 39.4006 263.7 39.4006C266.5 39.4006 272.2 40.0006 271.3 44.6006C269.1 56.5006 224.4 43.4006 219.1 72.4006C216.7 85.7006 226.7 91.7006 239.2 91.7006C249 91.7006 257 89.8006 265.7 83.0006V89.8006H292.9L293.1 88.6006C290.2 85.9006 290.4 84.1006 291.1 80.4006L296.4 50.6006Z" fill="white"/>
<path d="M330.602 38.8004H330.302L332.702 25.9004H308.802L297.102 89.8004H323.402L327.402 67.7004C329.902 53.9004 336.202 49.0004 347.002 49.0004C348.802 49.0004 350.602 49.5004 352.302 49.7004L356.902 24.3004C355.802 24.2004 354.702 23.9004 353.602 23.9004C343.402 24.1004 336.102 28.9004 330.602 38.8004Z" fill="white"/>
<path d="M423.801 45.4002C421.101 59.9002 414.101 70.6002 401.301 70.6002C387.001 70.6002 386.001 56.6002 388.101 45.4002C390.101 34.3002 396.601 21.1002 410.101 21.1002C423.201 20.8002 425.901 33.5002 423.801 45.4002ZM414.201 -0.299805C385.901 -0.299805 363.301 17.6002 358.301 45.2002C352.801 75.1002 368.801 92.1002 397.301 92.1002C424.201 92.1002 448.101 75.3002 453.501 45.4002C457.801 22.3002 446.601 -0.299805 414.201 -0.299805Z" fill="white"/>
<path d="M508.502 24.1006C498.502 24.1006 491.302 28.3006 484.002 35.9006L485.802 25.9006H461.802L450.102 89.8006H476.402L482.302 57.3006C483.802 49.1006 486.802 44.1006 494.902 44.1006C502.302 44.1006 503.102 49.7006 501.902 56.0006L495.702 89.8006H522.002L529.002 51.5006C532.302 34.0006 525.902 24.1006 508.502 24.1006Z" fill="white"/>
<path d="M573.601 39.6006C579.801 39.6006 584.301 44.8006 583.201 50.7006H559.301C560.601 43.8006 565.801 39.6006 573.601 39.6006ZM578.501 70.6006C575.901 74.4006 571.801 76.2006 567.601 76.2006C560.701 76.2006 555.501 71.2006 556.901 63.6006H607.001C611.601 40.4006 599.801 24.1006 575.301 24.1006C554.101 24.1006 535.301 37.5006 531.501 58.5006C527.601 79.9006 541.901 91.7006 563.101 91.7006C578.501 91.7006 596.101 86.5006 603.601 70.6006H578.501V70.6006Z" fill="white"/>
</g>
<defs>
<clipPath id="clip0_338_3228">
<rect width="652" height="92" fill="white"/>
</clipPath>
</defs>
</svg>
