<svg width="32" height="32" viewBox="0 0 32 32" fill="none" xmlns="http://www.w3.org/2000/svg">
<mask id="mask0_436_994" style="mask-type:alpha" maskUnits="userSpaceOnUse" x="0" y="0" width="32" height="32">
<rect width="32" height="32" fill="#802DDC"/>
</mask>
<g mask="url(#mask0_436_994)">
<path d="M16.5 32.0002C16.2734 32.0012 16.0488 31.9576 15.839 31.8718C15.6293 31.786 15.4385 31.6596 15.2775 31.5L7.05775 23.2771C5.75993 21.986 4.73261 20.4488 4.03592 18.7556C3.33923 17.0624 2.98718 15.2471 3.00036 13.4161C2.99477 11.6434 3.34278 9.88732 4.02402 8.25078C4.70526 6.61424 5.70604 5.13011 6.96775 3.88529C9.516 1.3945 12.9373 0 16.5 0C20.0627 0 23.484 1.3945 26.0322 3.88529C27.294 5.13011 28.2947 6.61424 28.976 8.25078C29.6572 9.88732 30.0052 11.6434 29.9996 13.4161C30.0128 15.2471 29.6608 17.0624 28.9641 18.7556C28.2674 20.4488 27.2401 21.986 25.9422 23.2771L17.7225 31.485C17.5628 31.6473 17.3725 31.7764 17.1627 31.8648C16.9529 31.9533 16.7277 31.9993 16.5 32.0002ZM16.5 1.48945C13.3278 1.48214 10.2807 2.72677 8.02022 4.95317C6.90035 6.05923 6.01223 7.37762 5.40784 8.8312C4.80345 10.2848 4.49492 11.8443 4.50032 13.4186C4.48831 15.0517 4.80206 16.6708 5.4232 18.181C6.04434 19.6913 6.96038 21.0625 8.11772 22.2142L16.335 30.4221C16.3562 30.4441 16.3817 30.4616 16.4098 30.4736C16.4379 30.4856 16.4682 30.4917 16.4987 30.4917C16.5293 30.4917 16.5596 30.4856 16.5877 30.4736C16.6158 30.4616 16.6413 30.4441 16.6625 30.4221L24.8823 22.2142C26.0396 21.0625 26.9557 19.6913 27.5768 18.181C28.1979 16.6708 28.5117 15.0517 28.4997 13.4186C28.5051 11.8443 28.1966 10.2848 27.5922 8.8312C26.9878 7.37762 26.0997 6.05923 24.9798 4.95317C22.7193 2.72677 19.6722 1.48214 16.5 1.48945Z" fill="#802DDC"/>
<path d="M16.4996 20.3485C14.9239 20.3478 13.3973 19.8007 12.1796 18.8004C10.9619 17.8001 10.1284 16.4084 9.82119 14.8625C9.51397 13.3165 9.75195 11.7117 10.4946 10.3216C11.2373 8.93139 12.4387 7.84173 13.8942 7.23816C15.3498 6.63459 16.9695 6.55444 18.4775 7.01135C19.9855 7.46826 21.2885 8.43398 22.1647 9.74404C23.0409 11.0541 23.436 12.6275 23.2828 14.1963C23.1296 15.765 22.4375 17.2322 21.3245 18.3478C20.6915 18.9827 19.9394 19.4862 19.1115 19.8295C18.2835 20.1729 17.3959 20.3492 16.4996 20.3485ZM16.4996 8.22178C15.2702 8.22373 14.0796 8.65197 13.1304 9.43354C12.1812 10.2151 11.5322 11.3017 11.2939 12.5082C11.0557 13.7147 11.2429 14.9665 11.8237 16.0505C12.4045 17.1344 13.3429 17.9834 14.4792 18.4529C15.6154 18.9223 16.8792 18.9832 18.0553 18.6252C19.2315 18.2672 20.2471 17.5123 20.9294 16.4893C21.6116 15.4662 21.9182 14.2382 21.797 13.0143C21.6758 11.7905 21.1342 10.6465 20.2645 9.77733C19.7701 9.28301 19.1831 8.89116 18.537 8.62422C17.8909 8.35729 17.1986 8.22053 16.4996 8.22178Z" fill="#802DDC"/>
</g>
</svg>
