<svg width="152" height="53" viewBox="0 0 152 53" fill="none" xmlns="http://www.w3.org/2000/svg">
<path d="M30.861 53L23.7393 40.5491L33.7436 23.7236L50.7 53H30.861Z" fill="#802DDC"/>
<path d="M13.9043 23.5557L0 0H20.1782L23.7391 6.7302L13.9043 23.5557Z" fill="#2280FC"/>
<path d="M3.89941 40.5504L13.9037 23.5566L23.7385 40.5504H3.89941Z" fill="#239988"/>
<path d="M23.7393 40.5497V6.73047L33.7436 23.7242L23.7393 40.5497Z" fill="#FFD449"/>
<path d="M52.3787 17.1782C52.1996 16.5967 51.9962 15.999 51.7683 15.3852C51.5566 14.7715 51.345 14.1577 51.1334 13.5439H44.5407C44.3291 14.1577 44.1094 14.7715 43.8815 15.3852C43.6698 15.999 43.4745 16.5967 43.2954 17.1782H39.3398C39.9747 15.3691 40.577 13.6973 41.1467 12.1628C41.7165 10.6283 42.2699 9.18269 42.8071 7.82588C43.3606 6.46907 43.8977 5.18495 44.4186 3.97351C44.9558 2.74592 45.5093 1.55064 46.079 0.387661H49.7172C50.2707 1.55064 50.816 2.74592 51.3532 3.97351C51.8903 5.18495 52.4275 6.46907 52.9647 7.82588C53.5182 9.18269 54.0798 10.6283 54.6495 12.1628C55.2192 13.6973 55.8215 15.3691 56.4564 17.1782H52.3787ZM47.8127 4.19157C47.7313 4.43386 47.6092 4.76498 47.4464 5.18495C47.2836 5.60491 47.0964 6.08949 46.8848 6.63867C46.6732 7.18786 46.4371 7.79358 46.1767 8.45583C45.9325 9.11808 45.6802 9.81264 45.4198 10.5395H50.23C49.9695 9.81264 49.7172 9.11808 49.473 8.45583C49.2289 7.79358 48.9928 7.18786 48.7649 6.63867C48.5533 6.08949 48.3661 5.60491 48.2033 5.18495C48.0405 4.76498 47.9103 4.43386 47.8127 4.19157Z" fill="#161616"/>
<path d="M61.2254 8.7708C61.2254 9.59458 61.3231 10.3376 61.5184 10.9998C61.73 11.6621 62.023 12.2355 62.3974 12.7201C62.7881 13.1885 63.2602 13.5519 63.8136 13.8104C64.3671 14.0688 65.0019 14.198 65.7182 14.198C66.4181 14.198 67.0449 14.0688 67.5983 13.8104C68.168 13.5519 68.6401 13.1885 69.0145 12.7201C69.4052 12.2355 69.6982 11.6621 69.8935 10.9998C70.1052 10.3376 70.211 9.59458 70.211 8.7708C70.211 7.94702 70.1052 7.20401 69.8935 6.54176C69.6982 5.86335 69.4052 5.28994 69.0145 4.82152C68.6401 4.33694 68.168 3.96544 67.5983 3.707C67.0449 3.44856 66.4181 3.31934 65.7182 3.31934C65.0019 3.31934 64.3671 3.45663 63.8136 3.73123C63.2602 3.98967 62.7881 4.36117 62.3974 4.84575C62.023 5.31417 61.73 5.88758 61.5184 6.56599C61.3231 7.22824 61.2254 7.96318 61.2254 8.7708ZM74.1422 8.7708C74.1422 9.94993 73.9956 11.016 73.7026 11.969C73.4096 12.9058 72.9945 13.7296 72.4574 14.4403C71.9365 15.151 71.3097 15.7406 70.5772 16.209C69.8447 16.6774 69.0389 17.0166 68.1599 17.2266C68.2413 17.5497 68.4204 17.8081 68.6971 18.0019C68.9738 18.2119 69.3238 18.3815 69.747 18.5108C70.1703 18.64 70.6586 18.7369 71.2121 18.8015C71.7818 18.8661 72.3922 18.9226 73.0434 18.9711L72.262 21.7332C70.9923 21.6847 69.9017 21.5555 68.9901 21.3455C68.0948 21.1517 67.3297 20.8771 66.6949 20.5217C66.0763 20.1664 65.5798 19.7303 65.2054 19.2134C64.8473 18.6965 64.5706 18.0989 64.3752 17.4205C63.366 17.2912 62.43 17.0166 61.5672 16.5967C60.7045 16.1606 59.9557 15.5791 59.3208 14.8522C58.686 14.1254 58.1895 13.2531 57.8314 12.2355C57.4733 11.2179 57.2942 10.063 57.2942 8.7708C57.2942 7.33323 57.5221 6.07334 57.9779 4.99112C58.4337 3.89275 59.0441 2.97206 59.8092 2.22904C60.5905 1.48603 61.4858 0.928768 62.4951 0.557261C63.5206 0.185754 64.595 0 65.7182 0C66.8739 0 67.9646 0.185754 68.9901 0.557261C70.0156 0.928768 70.9109 1.48603 71.676 2.22904C72.4411 2.97206 73.0434 3.89275 73.4829 4.99112C73.9224 6.07334 74.1422 7.33323 74.1422 8.7708Z" fill="#161616"/>
<path d="M83.9345 17.5174C82.7461 17.5174 81.7206 17.3559 80.8579 17.0328C79.9951 16.6936 79.2789 16.2333 78.7091 15.6518C78.1557 15.0541 77.7406 14.3515 77.4639 13.5439C77.2034 12.7201 77.0732 11.8155 77.0732 10.8302V0.387661H80.8823V10.5153C80.8823 11.1937 80.9555 11.7752 81.102 12.2597C81.2648 12.7282 81.4764 13.1158 81.7369 13.4227C82.0136 13.7135 82.3392 13.9234 82.7136 14.0527C83.1043 14.1819 83.5275 14.2465 83.9833 14.2465C84.9111 14.2465 85.6599 13.9638 86.2297 13.3985C86.8157 12.8332 87.1087 11.8721 87.1087 10.5153V0.387661H90.9178V10.8302C90.9178 11.8155 90.7794 12.7201 90.5027 13.5439C90.226 14.3676 89.8027 15.0784 89.233 15.676C88.6633 16.2575 87.9389 16.7098 87.0599 17.0328C86.1808 17.3559 85.139 17.5174 83.9345 17.5174Z" fill="#161616"/>
<path d="M105.434 17.1782C105.255 16.5967 105.051 15.999 104.823 15.3852C104.612 14.7715 104.4 14.1577 104.189 13.5439H97.5959C97.3843 14.1577 97.1646 14.7715 96.9367 15.3852C96.7251 15.999 96.5297 16.5967 96.3507 17.1782H92.3951C93.0299 15.3691 93.6322 13.6973 94.2019 12.1628C94.7717 10.6283 95.3251 9.18269 95.8623 7.82588C96.4158 6.46907 96.953 5.18495 97.4739 3.97351C98.011 2.74592 98.5645 1.55064 99.1342 0.387661H102.772C103.326 1.55064 103.871 2.74592 104.408 3.97351C104.946 5.18495 105.483 6.46907 106.02 7.82588C106.573 9.18269 107.135 10.6283 107.705 12.1628C108.274 13.6973 108.877 15.3691 109.512 17.1782H105.434ZM100.868 4.19157C100.786 4.43386 100.664 4.76498 100.502 5.18495C100.339 5.60491 100.152 6.08949 99.94 6.63867C99.7284 7.18786 99.4924 7.79358 99.2319 8.45583C98.9877 9.11808 98.7354 9.81264 98.475 10.5395H103.285C103.025 9.81264 102.772 9.11808 102.528 8.45583C102.284 7.79358 102.048 7.18786 101.82 6.63867C101.609 6.08949 101.421 5.60491 101.259 5.18495C101.096 4.76498 100.966 4.43386 100.868 4.19157Z" fill="#161616"/>
<path d="M122.249 0.387661V3.61008H117.146V17.1782H113.337V3.61008H108.234V0.387661H122.249Z" fill="#161616"/>
<path d="M124.697 17.1782V0.387661H136.125V3.56162H128.507V6.85673H135.27V9.95801H128.507V14.0042H136.686V17.1782H124.697Z" fill="#161616"/>
<path d="M150.81 13.9315V17.1782H139.505V0.387661H143.314V13.9315H150.81Z" fill="#161616"/>
<path d="M115.645 23.6076H117.305V40.3981H115.645V23.6076Z" fill="#161616"/>
<path d="M133.226 40.3981C132.917 39.8327 132.518 39.1705 132.03 38.4113C131.558 37.6522 131.037 36.8445 130.467 35.9885C129.897 35.1162 129.295 34.2278 128.66 33.3233C128.025 32.4026 127.39 31.5142 126.756 30.6581C126.137 29.7859 125.527 28.9702 124.924 28.211C124.338 27.4519 123.809 26.7977 123.337 26.2485V40.3981H121.701V23.6076H123.02C123.85 24.5283 124.737 25.5943 125.681 26.8058C126.642 28.001 127.578 29.2286 128.489 30.4885C129.401 31.7323 130.247 32.9518 131.029 34.1471C131.826 35.3424 132.477 36.3842 132.982 37.2726V23.6076H134.618V40.3981H133.226Z" fill="#161616"/>
<path d="M146.045 40.7615C144.954 40.7615 143.937 40.5677 142.993 40.18C142.065 39.7924 141.251 39.227 140.551 38.484C139.867 37.741 139.322 36.8284 138.915 35.7462C138.524 34.6478 138.329 33.396 138.329 31.9907C138.329 30.5854 138.541 29.3417 138.964 28.2595C139.403 27.1611 139.981 26.2404 140.697 25.4974C141.414 24.7544 142.244 24.1971 143.188 23.8256C144.132 23.438 145.117 23.2441 146.143 23.2441C146.777 23.2441 147.355 23.2845 147.876 23.3653C148.397 23.446 148.853 23.551 149.244 23.6803C149.634 23.7933 149.968 23.9145 150.245 24.0437C150.521 24.1568 150.733 24.2617 150.879 24.3587L150.342 25.7882C149.935 25.5459 149.414 25.3117 148.78 25.0855C148.161 24.8432 147.388 24.7221 146.46 24.7221C145.402 24.7221 144.474 24.8998 143.676 25.2551C142.895 25.6105 142.236 26.1112 141.699 26.7573C141.161 27.4034 140.754 28.1706 140.478 29.059C140.217 29.9474 140.087 30.9327 140.087 32.0149C140.087 33.1295 140.217 34.139 140.478 35.0435C140.754 35.9319 141.153 36.6911 141.674 37.321C142.195 37.951 142.83 38.4356 143.579 38.7748C144.344 39.114 145.215 39.2836 146.191 39.2836C147.266 39.2836 148.161 39.1866 148.877 38.9928C149.61 38.7828 150.163 38.5729 150.538 38.3629L151.002 39.7681C150.888 39.8489 150.692 39.9458 150.416 40.0589C150.139 40.1558 149.789 40.2608 149.366 40.3739C148.942 40.4869 148.454 40.5758 147.901 40.6404C147.347 40.7211 146.729 40.7615 146.045 40.7615Z" fill="#161616"/>
</svg>
