<svg width="343" height="115" viewBox="0 0 343 115" fill="none" xmlns="http://www.w3.org/2000/svg">
<mask id="mask0_478_1003" style="mask-type:alpha" maskUnits="userSpaceOnUse" x="0" y="0" width="343" height="115">
<rect width="343" height="115" fill="#C4C4C4"/>
</mask>
<g mask="url(#mask0_478_1003)">
<path d="M55.4339 72.9842L46.3048 67.7048L43.4451 66.0549C42.3452 65.23 41.6303 63.8552 41.6303 62.3703C41.6303 60.8855 42.3452 59.5106 43.4451 58.6857L46.3048 57.0359L37.1758 51.7564C34.1511 54.3411 32.2812 58.1357 32.2812 62.4253C32.2812 66.6599 34.1511 70.4545 37.1758 73.0392C37.6707 73.4792 38.2206 73.8642 38.7706 74.1941L46.3048 78.5387L71.4923 93.1122C73.5821 94.3221 75.9468 95.037 78.5316 95.037C86.2858 95.037 92.5552 88.7677 92.5552 81.0134V43.7272C92.5552 35.973 86.2858 29.7036 78.5316 29.7036C75.9468 29.7036 73.5271 30.4185 71.4373 31.6284L46.2498 46.2019L53.7841 50.5465C54.334 50.8765 54.884 51.3164 55.3789 51.7014L76.1118 39.6576C76.8268 39.2177 77.6517 38.9977 78.4766 38.9977C81.0613 38.9977 83.1511 41.0875 83.1511 43.6722V80.9584C83.1511 83.5432 81.0613 85.633 78.4766 85.633C77.5967 85.633 76.8268 85.413 76.1118 84.973L55.4339 72.9842Z" fill="#25A4DC"/>
<path d="M236.365 75.5695V48.1273H249.454V39.1076H236.365V26.8439H226.961V75.6239C226.961 90.2525 236.255 98.1717 249.619 96.6318V87.9427C242.525 88.3277 236.365 85.7429 236.365 75.569V75.5695ZM210.629 21.1244C207.439 21.1244 204.91 23.7092 204.91 26.8439C204.91 29.9786 207.494 32.5633 210.629 32.5633C213.819 32.5633 216.348 29.9786 216.348 26.8439C216.348 23.7092 213.764 21.1244 210.629 21.1244ZM328.372 77.6037V17.5498H318.748V77.6587C318.748 88.2177 327.327 96.7968 337.886 96.7968V87.1728C332.662 87.1178 328.372 82.8832 328.372 77.6037ZM181.316 22.0594L158.328 77.4943L135.506 22.0599H121.922V95.7525H131.491V35.0936L156.458 95.7525H160.253L185.33 35.0936V95.7525H194.735V22.0599H181.316V22.0594Z" fill="white"/>
<path d="M46.3053 57.0359L49.165 58.6857C50.2649 59.5656 50.9799 60.8855 50.9799 62.3703C50.9799 63.8552 50.2649 65.23 49.165 66.0549L46.3053 67.7048L55.4344 72.9842C58.4041 70.3995 60.3289 66.6049 60.3289 62.3703C60.3289 58.1357 58.4041 54.2861 55.4344 51.7014C54.9395 51.2614 54.3895 50.8765 53.8396 50.5465L46.3053 46.2019L21.1179 31.6284C19.0281 30.4185 16.6083 29.7036 14.0236 29.7036C6.26937 29.7036 0 35.973 0 43.7272V81.0134C0 88.7677 6.26937 95.037 14.0236 95.037C16.6083 95.037 18.9731 94.3221 21.0629 93.1122L46.2503 78.5387L38.7161 74.1941C38.1661 73.8642 37.6162 73.4242 37.1213 73.0392L16.3883 84.973C15.6734 85.358 14.9035 85.633 14.0236 85.633C11.4388 85.633 9.34906 83.5432 9.34906 80.9584V43.6722C9.34906 41.0875 11.4388 38.9977 14.0236 38.9977C14.9035 38.9977 15.7284 39.2726 16.3883 39.6576L37.1213 51.7014L46.3053 57.0359Z" fill="#585858"/>
<path d="M337.666 17C340.58 17 343 19.3098 343 22.2795C343 25.3592 340.58 27.6139 337.666 27.6139C334.751 27.6139 332.276 25.3042 332.276 22.2795C332.276 19.3098 334.751 17 337.666 17ZM337.666 26.899C340.14 26.899 342.065 24.9192 342.065 22.3345C342.065 19.8047 340.14 17.8249 337.666 17.8249C335.191 17.8249 333.266 19.8047 333.266 22.3345C333.266 24.9192 335.191 26.899 337.666 26.899ZM335.576 19.2548H337.996C339.481 19.2548 340.195 19.8597 340.195 21.0146C340.195 22.1695 339.481 22.6094 338.546 22.7194L340.305 25.4691H339.261L337.556 22.7744H336.511V25.4691H335.521V19.2548H335.576ZM336.566 22.0045H337.556C338.436 22.0045 339.206 21.9495 339.206 20.9596C339.206 20.1347 338.491 20.0247 337.831 20.0247H336.566V22.0045ZM215.412 38.2279H205.898V95.8071H215.412V38.2279ZM282.561 89.3177C273.047 89.3177 263.918 82.2784 262.708 70.3446H311.048C311.158 49.8867 296.86 37.6229 282.011 37.6229C266.063 37.6229 253.084 51.2615 253.084 67.8699C253.084 84.7532 266.063 97.8969 282.561 97.8969C295.87 97.8969 305.659 90.9675 309.674 78.7038H299.665C296.53 85.4131 290.7 89.3177 282.561 89.3177ZM281.901 46.2021C290.26 46.2021 298.07 52.4714 300.434 61.8205H263.148C265.623 52.0315 273.982 46.2021 281.901 46.2021Z" fill="white"/>
</g>
</svg>
