<svg width="288" height="115" viewBox="0 0 288 115" fill="none" xmlns="http://www.w3.org/2000/svg">
<path d="M44.5998 0.700195L36.1998 20.2002L27.8998 0.700195H14.2998V45.0002H25.0998V17.5002L30.9998 32.0002H41.1998L47.0998 17.4002V45.1002H58.0998V0.700195H44.5998Z" fill="white"/>
<path d="M90.3002 25.2C90.1002 28.4 89.6002 30.8 88.6002 32.6C87.5002 34.8 85.8002 35.9 83.6002 35.9C81.4002 35.9 79.7002 34.8 78.6002 32.6C77.6002 30.8 77.1002 28.4 77.0002 25.2H64.7002C64.8002 27.6 65.2002 29.8 65.8002 32C66.6002 34.8 67.9002 37.2 69.4002 39.3C71.0002 41.4 72.9002 42.9 75.3002 44C77.7002 45.1 80.4002 45.7 83.5002 45.7C86.6002 45.7 89.3002 45.1 91.7002 44C94.1002 42.9 96.1002 41.2 97.6002 39.3C99.2002 37.4 100.4 34.8 101.2 32C101.8 29.9 102.2 27.6 102.3 25.2H90.3002V25.2ZM101.4 13.7C100.6 10.9 99.3002 8.5 97.8002 6.4C96.2002 4.3 94.2002 2.8 91.9002 1.7C89.5002 0.6 86.7002 0 83.6002 0C80.5002 0 77.7002 0.6 75.4002 1.7C73.0002 2.8 71.0002 4.5 69.5002 6.4C67.9002 8.5 66.7002 10.9 65.9002 13.7C65.2002 16.1 64.8002 18.7 64.7002 21.5H77.1002C77.2002 17.9 77.8002 15.1 78.8002 13.1C79.9002 10.9 81.6002 9.8 83.8002 9.8C86.0002 9.8 87.7002 10.9 88.8002 13.1C89.8002 15 90.4002 17.8 90.5002 21.5H102.9C102.5 18.8 102.1 16.1 101.4 13.7Z" fill="white"/>
<path d="M131.3 25.1999C131.2 26.4999 131.1 27.6999 130.8 28.6999C130.4 30.2999 130 31.5999 129.2 32.5999C128.5 33.5999 127.6 34.2999 126.7 34.6999C125.8 35.0999 124.6 35.2999 123.3 35.2999H121.2V25.1999H109.1V44.9999H123.4C126.4 44.9999 129.2 44.4999 131.6 43.4999C134.1 42.4999 136.2 41.1999 138 39.3999C139.8 37.5999 141.1 35.2999 142.1 32.4999C142.8 30.2999 143.3 27.8999 143.4 25.1999H131.3ZM142.2 13.1999C141.2 10.3999 139.9 8.0999 138.1 6.2999C136.3 4.4999 134.2 2.9999 131.7 2.1999C129.3 1.1999 126.5 0.899902 123.5 0.899902H109.2V21.5999H121.4V10.3999H123.5C124.7 10.3999 125.9 10.5999 126.9 10.9999C127.9 11.4999 128.7 12.1999 129.4 13.1999C130.1 14.1999 130.6 15.4999 131 17.0999C131.2 18.2999 131.5 19.7999 131.5 21.4999H143.9C143.6 18.3999 143.1 15.5999 142.2 13.1999Z" fill="white"/>
<path d="M173.1 25.2002V26.7002C173.1 29.7002 172.6 31.9002 171.8 33.4002C171 34.9002 169.6 35.6002 167.8 35.6002C166 35.6002 164.7 34.9002 163.7 33.4002C162.9 31.9002 162.4 29.8002 162.4 26.7002V25.2002H150.3V26.4002C150.3 29.7002 150.7 32.5002 151.5 34.9002C152.3 37.3002 153.6 39.3002 155 41.0002C156.6 42.6002 158.4 43.8002 160.6 44.6002C162.8 45.4002 165.2 45.8002 167.9 45.8002C170.6 45.8002 173 45.4002 175.2 44.6002C177.4 43.8002 179.2 42.7002 180.8 41.0002C182.4 39.4002 183.6 37.4002 184.3 34.9002C185.1 32.5002 185.5 29.7002 185.5 26.4002V25.2002H173.1ZM173.1 0.700195V21.4002H185.3V0.700195H173.1ZM150.2 0.700195V21.4002H162.4V0.700195H150.2Z" fill="white"/>
<path d="M206 34.9002V25.3002H205.8H193.8V45.1002H223.2V34.9002H206ZM193.7 0.700195V21.4002H206V0.700195H193.7Z" fill="white"/>
<path d="M152.2 56.4002C151.6 56.0002 150.9 55.7002 150.1 55.6002C149.4 55.5002 148.6 55.4002 148 55.4002C146.7 55.4002 145.8 55.6002 145.2 56.1002C144.6 56.6002 144.4 57.3002 144.4 58.2002C144.4 59.0002 144.6 59.8002 145.2 60.3002C145.8 60.9002 146.7 61.4002 147.9 61.9002C148.9 62.3002 149.7 62.6002 150.4 63.1002C151.1 63.5002 151.6 63.9002 152.1 64.4002C152.6 64.9002 152.8 65.5002 153.1 66.1002C153.3 66.7002 153.5 67.4002 153.5 68.2002C153.5 70.0002 152.9 71.4002 151.8 72.3002C150.7 73.3002 149.1 73.8002 147.1 73.8002C145.3 73.8002 143.7 73.3002 142.3 72.5002L142.5 69.8002C143.2 70.4002 144 70.8002 144.8 71.0002C145.6 71.2002 146.5 71.4002 147.3 71.4002C148.6 71.4002 149.6 71.2002 150.2 70.6002C150.8 70.0002 151.2 69.3002 151.2 68.3002C151.2 67.3002 151 66.6002 150.4 66.0002C149.8 65.4002 148.8 64.8002 147.4 64.3002C145.7 63.7002 144.4 62.8002 143.5 61.9002C142.7 60.9002 142.3 59.7002 142.3 58.3002C142.3 56.7002 142.8 55.4002 143.9 54.5002C145 53.5002 146.4 53.2002 148.4 53.2002C149.1 53.2002 149.9 53.3002 150.6 53.4002C151.3 53.5002 152.1 53.8002 152.7 54.1002L152.2 56.4002Z" fill="white"/>
<path d="M171.9 63.4C171.9 64.9 171.8 66.2 171.4 67.5C171 68.7 170.6 69.9 169.8 70.8C169.1 71.8 168.3 72.5 167.4 73C166.4 73.5 165.3 73.8 164.1 73.8C162.9 73.8 161.7 73.6 160.7 73C159.7 72.4 158.9 71.7 158.3 70.8C157.6 69.8 157.1 68.7 156.7 67.5C156.3 66.3 156.2 64.8 156.2 63.4C156.2 62 156.3 60.6 156.7 59.3C157.1 58.1 157.5 56.9 158.3 56C159 55 159.8 54.3 160.7 53.8C161.7 53.3 162.8 53 164.1 53C165.3 53 166.4 53.2 167.4 53.8C168.4 54.3 169.2 55.1 169.8 56C170.5 57 171 58.1 171.4 59.3C171.8 60.5 171.9 62 171.9 63.4ZM158.5 63.4C158.5 64.6 158.6 65.8 158.9 66.8C159.1 67.8 159.5 68.6 160 69.3C160.5 70 161.1 70.5 161.8 70.9C162.5 71.3 163.3 71.5 164.1 71.5C164.9 71.5 165.7 71.3 166.4 70.9C167.1 70.5 167.7 69.9 168.2 69.3C168.7 68.6 169 67.7 169.3 66.8C169.5 65.8 169.7 64.7 169.7 63.4C169.7 62.2 169.6 61 169.3 60C169.1 59 168.7 58.2 168.2 57.5C167.7 56.8 167.1 56.3 166.4 55.9C165.7 55.5 164.9 55.3 164.1 55.3C163.3 55.3 162.5 55.5 161.8 55.9C161.1 56.3 160.5 56.9 160 57.5C159.5 58.2 159.2 59.1 158.9 60C158.6 61 158.5 62.1 158.5 63.4Z" fill="white"/>
<path d="M175.8 53.3999H178V71.3999H187.4V73.6999H175.6V53.3999H175.8Z" fill="white"/>
<path d="M197.6 73.8999C196.6 73.8999 195.7 73.7999 194.8 73.3999C194 72.9999 193.2 72.5999 192.6 71.7999C192 71.0999 191.5 70.1999 191.1 69.2999C190.7 68.2999 190.6 67.0999 190.6 65.6999V53.3999H192.8V65.4999C192.8 67.3999 193.2 68.8999 193.9 69.9999C194.6 71.0999 195.8 71.5999 197.5 71.5999C199.2 71.5999 200.4 71.0999 201.1 69.9999C201.8 68.8999 202.2 67.4999 202.2 65.4999V53.3999H204.4V65.6999C204.4 66.9999 204.3 68.1999 203.9 69.2999C203.5 70.2999 203.1 71.1999 202.4 71.7999C201.8 72.4999 201.1 72.9999 200.2 73.3999C199.7 73.5999 198.7 73.8999 197.6 73.8999Z" fill="white"/>
<path d="M212.9 55.5999H207.4V53.3999H220.6V55.6999H215.1V73.6999H213V55.5999H212.9Z" fill="white"/>
<path d="M225.8 53.3999V73.4999H223.6V53.3999H225.8Z" fill="white"/>
<path d="M245.4 63.4C245.4 64.9 245.3 66.2 244.9 67.5C244.5 68.7 244.1 69.9 243.3 70.8C242.6 71.8 241.8 72.5 240.9 73C239.9 73.5 238.8 73.8 237.6 73.8C236.4 73.8 235.2 73.6 234.2 73C233.2 72.4 232.4 71.7 231.8 70.8C231.1 69.8 230.6 68.7 230.2 67.5C229.8 66.3 229.7 64.8 229.7 63.4C229.7 62 229.8 60.6 230.2 59.3C230.6 58.1 231 56.9 231.8 56C232.5 55 233.3 54.3 234.2 53.8C235.2 53.3 236.3 53 237.6 53C238.8 53 239.9 53.2 240.9 53.8C241.9 54.3 242.7 55.1 243.3 56C244 57 244.5 58.1 244.9 59.3C245.3 60.5 245.4 62 245.4 63.4ZM232 63.4C232 64.6 232.1 65.8 232.4 66.8C232.6 67.8 233 68.6 233.5 69.3C234 70 234.6 70.5 235.3 70.9C236 71.3 236.8 71.5 237.6 71.5C238.4 71.5 239.2 71.3 239.9 70.9C240.6 70.5 241.2 69.9 241.7 69.3C242.2 68.6 242.5 67.7 242.8 66.8C243 65.8 243.2 64.7 243.2 63.4C243.2 62.2 243.1 61 242.8 60C242.6 59 242.2 58.2 241.7 57.5C241.2 56.8 240.6 56.3 239.9 55.9C239.2 55.5 238.4 55.3 237.6 55.3C236.8 55.3 236 55.5 235.3 55.9C234.6 56.3 234 56.9 233.5 57.5C233 58.2 232.7 59.1 232.4 60C232.1 61 232 62.1 232 63.4Z" fill="white"/>
<path d="M249.2 53.3999H251.9L261 70.3999V53.3999H263.1V73.4999H260.4L251.3 56.4999V73.4999H249.2V53.3999V53.3999Z" fill="white"/>
<path d="M276.9 56.4002C276.3 56.0002 275.6 55.7002 274.8 55.6002C274.1 55.5002 273.3 55.4002 272.7 55.4002C271.4 55.4002 270.5 55.6002 269.9 56.1002C269.3 56.6002 269.1 57.3002 269.1 58.2002C269.1 59.0002 269.3 59.8002 269.9 60.3002C270.5 60.9002 271.4 61.4002 272.6 61.9002C273.6 62.3002 274.4 62.6002 275.1 63.1002C275.8 63.5002 276.3 63.9002 276.8 64.4002C277.3 64.9002 277.5 65.5002 277.8 66.1002C278 66.7002 278.2 67.4002 278.2 68.2002C278.2 70.0002 277.6 71.4002 276.5 72.3002C275.4 73.3002 273.8 73.8002 271.8 73.8002C270 73.8002 268.4 73.3002 267 72.5002L267.2 69.8002C267.9 70.4002 268.7 70.8002 269.5 71.0002C270.3 71.2002 271.2 71.4002 272 71.4002C273.3 71.4002 274.3 71.2002 274.9 70.6002C275.5 70.0002 275.9 69.3002 275.9 68.3002C275.9 67.3002 275.7 66.6002 275.1 66.0002C274.5 65.4002 273.5 64.8002 272.1 64.3002C270.4 63.7002 269.1 62.8002 268.2 61.9002C267.4 60.9002 267 59.7002 267 58.3002C267 56.7002 267.5 55.4002 268.6 54.5002C269.7 53.5002 271.1 53.2002 273.1 53.2002C273.8 53.2002 274.6 53.3002 275.3 53.4002C276 53.5002 276.8 53.8002 277.4 54.1002L276.9 56.4002Z" fill="white"/>
<path d="M249.3 0.700195V45.0002H237.1V0.700195H249.3Z" stroke="white" stroke-miterlimit="10"/>
<path d="M264.8 10.9002H254.9V0.700195H287V10.9002H277.1V45.0002H264.9V10.9002H264.8Z" stroke="white" stroke-miterlimit="10"/>
<path fill-rule="evenodd" clip-rule="evenodd" d="M92.6 78.4001L113.8 57.1001L142.8 86.0001L113.8 115L92.6 93.8001L71.4 115L50.2 93.8001L29 115L0 86.0001L29 57.1001L50.2 78.4001L71.4 57.1001L92.6 78.4001ZM19.3 98.0001C19.3 98.5524 19.7477 99.0001 20.3 99.0001H37.3C37.8523 99.0001 38.3 98.5524 38.3 98.0001V74.0001C38.3 73.4478 37.8523 73.0001 37.3 73.0001H20.3C19.7477 73.0001 19.3 73.4478 19.3 74.0001V98.0001ZM76.2 86.5001C76.2 85.9478 76.6477 85.5001 77.2 85.5001H82.6C83.1523 85.5001 83.6 85.0524 83.6 84.5001V73.8001C83.6 73.2478 83.1523 72.8001 82.6 72.8001H75.6C75.0477 72.8001 74.6 72.3524 74.6 71.8001V71.3001C74.6 70.7478 74.1523 70.3001 73.6 70.3001H69.1C68.5477 70.3001 68.1 70.7478 68.1 71.3001V72.0001C68.1 72.5524 67.6523 73.0001 67.1 73.0001H60C59.4477 73.0001 59 73.4478 59 74.0001V84.6001C59 85.1524 59.4477 85.6001 60 85.6001H65.5C66.0523 85.6001 66.5 86.0478 66.5 86.6001V93.6001C66.5 94.1524 66.0523 94.6001 65.5 94.6001H61C60.4477 94.6001 60 95.0478 60 95.6001V96.3001C60 96.8524 60.4477 97.3001 61 97.3001H61.9C62.4523 97.3001 62.9 97.7478 62.9 98.3001V100.45C62.9 100.92 63.2806 101.3 63.75 101.3V101.3C64.2194 101.3 64.6 100.92 64.6 100.45V98.3001C64.6 97.7478 65.0477 97.3001 65.6 97.3001H77.1C77.6523 97.3001 78.1 97.7478 78.1 98.3001V100.45C78.1 100.92 78.4806 101.3 78.95 101.3V101.3C79.4194 101.3 79.8 100.92 79.8 100.45V98.3001C79.8 97.7478 80.2477 97.3001 80.8 97.3001H81.7C82.2523 97.3001 82.7 96.8524 82.7 96.3001V95.6001C82.7 95.0478 82.2523 94.6001 81.7 94.6001H77.2C76.6477 94.6001 76.2 94.1524 76.2 93.6001V86.5001ZM110.7 70.0001C110 70.0001 109.4 70.6001 109.4 71.2001V73.4001C109.4 74.0001 109.9 74.6001 110.6 74.6001H116.7C117.4 74.6001 117.9 74.0001 117.9 73.4001V71.2001C117.9 70.6001 117.4 70.0001 116.7 70.0001H114.9V69.7001C114.9 69.1478 114.452 68.7001 113.9 68.7001H113.5C112.948 68.7001 112.5 69.1478 112.5 69.7001V70.0001H110.7ZM115.3 80.4001H117.2C117.9 80.4001 118.4 79.9001 118.4 79.2001V77.1001C118.4 76.4001 117.8 75.9001 117.2 75.9001H110.4C109.7 75.9001 109.2 76.4001 109.2 77.1001V79.2001C109.2 79.8001 109.7 80.4001 110.4 80.4001H112.3V96.7001C112.3 97.0867 112.613 97.4001 113 97.4001V97.4001V100C113 100.442 113.358 100.8 113.8 100.8V100.8C114.242 100.8 114.6 100.442 114.6 100V97.4001V97.4001C114.987 97.4001 115.3 97.0867 115.3 96.7001V80.4001ZM37.3 98.0001H20.3V94.0001H37.3V98.0001ZM37.3 93.0001H20.3V88.0001H37.3V93.0001ZM37.3 87.0001H20.3V81.5001H37.3V87.0001ZM37.3 80.5001H20.3V76.0001H37.3V80.5001ZM60.7002 75.6001C60.7002 75.0478 61.1479 74.6001 61.7002 74.6001H80.8002C81.3525 74.6001 81.8002 75.0478 81.8002 75.6001V82.7001C81.8002 83.2524 81.3525 83.7001 80.8002 83.7001H61.7002C61.1479 83.7001 60.7002 83.2524 60.7002 82.7001V75.6001Z" fill="white"/>
</svg>
