<svg width="32" height="32" viewBox="0 0 32 32" fill="none" xmlns="http://www.w3.org/2000/svg">
<mask id="mask0_436_1009" style="mask-type:alpha" maskUnits="userSpaceOnUse" x="0" y="0" width="32" height="32">
<rect width="32" height="32" fill="#802DDC"/>
</mask>
<g mask="url(#mask0_436_1009)">
<path d="M7.68615 24.3137L7.68608 24.3137C3.02965 19.6583 0.443903 13.3199 0.500923 6.73935C0.507402 6.71282 0.516633 6.67619 0.528459 6.63192C0.55509 6.5322 0.594103 6.39659 0.643576 6.25149C0.693471 6.10515 0.751382 5.95695 0.814486 5.82911C0.880882 5.6946 0.937873 5.61407 0.974801 5.57743L0.974804 5.57743L0.976344 5.57589L3.09711 3.45328C3.09719 3.4532 3.09727 3.45312 3.09735 3.45304C3.40597 3.14495 3.88234 2.89936 4.41523 2.77366C4.94797 2.64801 5.48381 2.65478 5.8977 2.79242C5.89792 2.79249 5.89814 2.79256 5.89836 2.79264L6.34425 2.94255L6.34563 2.94301C6.7695 3.08415 7.23621 3.40344 7.63551 3.82524C8.03482 4.24706 8.32775 4.73024 8.44505 5.16053C8.44505 5.16054 8.44505 5.16054 8.44505 5.16054L9.51341 9.08033L9.51346 9.08051C9.63002 9.50754 9.6159 10.0596 9.47373 10.6055C9.33148 11.1517 9.07537 11.6367 8.76529 11.9467L7.34729 13.3647L7.14274 13.5692L7.2181 13.8485C8.65517 19.1745 12.8314 23.3495 18.1545 24.7885L18.4339 24.864L18.6386 24.6594L20.0566 23.2414C20.3664 22.9316 20.8521 22.6756 21.3996 22.5334C21.9467 22.3912 22.5001 22.3771 22.9273 22.4933L26.847 23.5635L26.8478 23.5638C27.2768 23.6801 27.7594 23.9722 28.1813 24.3712C28.6028 24.7698 28.9226 25.2363 29.0648 25.6608C29.0649 25.6611 29.065 25.6613 29.0651 25.6616L29.2132 26.1077L29.2132 26.1079C29.3511 26.5226 29.3578 27.0591 29.2321 27.5921C29.1064 28.1252 28.8607 28.6012 28.5527 28.9092L26.4324 31.0294C26.4322 31.0295 26.4321 31.0297 26.4319 31.0299C26.3958 31.0655 26.3146 31.122 26.1767 31.1878C26.0453 31.2505 25.8923 31.3079 25.7403 31.3572C25.5896 31.4061 25.4478 31.4445 25.3424 31.4705C25.2897 31.4835 25.2476 31.493 25.2193 31.499C25.2185 31.4991 25.2178 31.4993 25.2171 31.4994C18.6508 31.5435 12.3321 28.9606 7.68615 24.3137ZM25.2635 31.4991L25.2593 31.4991L25.2635 31.4991ZM16.4998 13.5498V12.5351C18.0326 12.7544 19.2451 13.9669 19.4644 15.4995H18.4495C18.2501 14.5219 17.478 13.7493 16.4998 13.5498ZM25.487 15.4995H24.4854C24.2354 11.2106 20.7906 7.76431 16.4998 7.51432V6.51272C21.3491 6.76408 25.2356 10.6504 25.487 15.4995ZM16.4998 1.50844V0.507913C24.6623 0.766632 31.2333 7.33739 31.4921 15.4995H30.4915C30.2327 7.90134 24.0982 1.76723 16.4998 1.50844Z" stroke="#802DDC"/>
</g>
</svg>
