<svg width="343" height="115" viewBox="0 0 343 115" fill="none" xmlns="http://www.w3.org/2000/svg">
<mask id="mask0_478_1042" style="mask-type:alpha" maskUnits="userSpaceOnUse" x="0" y="0" width="343" height="115">
<rect width="343" height="115" fill="#C4C4C4"/>
</mask>
<g mask="url(#mask0_478_1042)">
<path d="M178.837 39.0482C167.991 38.9072 159.143 47.3673 159 58.0835C159 58.3655 159 58.7885 159 59.0705V97L168.99 91.3599V74.5807C171.844 76.6957 175.412 77.8237 179.123 77.8237C189.969 78.1058 198.96 69.5046 199.246 58.7885C199.531 48.0724 190.826 39.1892 179.979 38.9072C179.551 39.0482 179.266 39.0482 178.837 39.0482ZM178.837 68.0946C173.414 68.0946 168.99 63.7236 168.99 58.3655C168.99 53.0074 173.414 48.6364 178.837 48.6364C184.261 48.6364 188.685 53.0074 188.685 58.3655C188.97 63.4416 184.974 67.8126 179.836 68.0946C179.408 68.0946 179.123 68.0946 178.837 68.0946ZM247.198 26.7811L257.188 21V76.2727H247.198V26.7811ZM222.366 39.0482C211.519 39.1892 202.814 47.9314 202.956 58.6475C203.099 69.3636 211.947 77.9647 222.794 77.8237C233.64 77.6827 242.203 69.0816 242.203 58.3655C242.203 47.6494 233.498 39.0482 222.794 38.9072C222.651 39.0482 222.508 39.0482 222.366 39.0482ZM222.366 68.0946C216.943 68.0946 212.518 63.7236 212.518 58.3655C212.518 53.0074 216.943 48.6364 222.366 48.6364C227.789 48.6364 232.213 53.0074 232.213 58.3655C232.499 63.4416 228.502 67.8126 223.365 68.0946C222.937 68.0946 222.651 68.0946 222.366 68.0946ZM303 40.4583L279.595 93.1929H268.891L277.026 75.5677L261.327 40.4583H272.173L282.449 63.4416L292.296 40.4583H303Z" fill="white"/>
<path d="M72.3681 77.153C61.4913 77.153 52.6742 68.3674 52.6742 57.5293C52.6742 46.6912 61.4913 37.9055 72.3681 37.9055C83.245 37.9055 92.062 46.6912 92.062 57.5293C92.062 68.3674 83.245 77.153 72.3681 77.153ZM125.777 49.9816L104.956 61.9592L105.051 61.3959L105.11 60.8965L105.179 60.0682L105.182 60.0055L105.186 59.9479L105.226 58.9363L105.234 57.8263L105.218 57.0223L105.167 55.87L105.091 54.8136L104.977 53.6716L104.898 53.0443L104.734 51.9329L104.54 50.8408L104.314 49.7717L104.058 48.7231L103.882 48.0765L103.577 47.0638L103.243 46.0728L102.944 45.2649L102.553 44.3086L102.136 43.3726L101.691 42.4635L101.209 41.5597L100.699 40.6724L100.653 40.598L100.104 39.7236L99.5222 38.8632L98.9068 38.0182L98.254 37.1809L97.5601 36.3525L97.4819 36.2616L96.7469 35.4448L95.9733 34.6394L95.1536 33.838L94.2889 33.0415L94.2206 32.9814L93.3046 32.1902L92.3294 31.3963L91.3502 30.6397L90.254 29.8369L89.0695 29.0136L88.1817 28.4209L86.8234 27.5514L85.2918 26.6091L84.783 26.3044L82.9031 25.2007L82.4381 24.9306L81.2544 24.2494L39.1028 0V15.2156L59.9223 27.193L59.3865 27.3915L58.9226 27.5901L58.1697 27.9446L58.1118 27.9741L58.0579 28.0009L57.1598 28.4722L56.1935 29.0201L55.501 29.435L54.5257 30.0546L53.6455 30.6499L52.7101 31.3196L52.1987 31.7037L51.3159 32.4002L50.4666 33.1134L49.6507 33.8418L48.8694 34.5857L48.3927 35.0633L47.6655 35.8314L46.973 36.614L46.4191 37.2796L45.7844 38.0927L45.1805 38.9197L44.6099 39.7609L44.0665 40.6264L43.5525 41.5098L43.5061 41.5918L43.023 42.5009L42.5682 43.4317L42.1404 44.3842L41.7407 45.3649L41.3668 46.3751L41.3257 46.4942L40.984 47.5351L40.6717 48.6029L40.3838 49.7078L40.1255 50.8512L40.1063 50.9459L39.8776 52.1303L39.6746 53.3658L39.5063 54.5936L39.3571 55.9393L39.2338 57.3707L39.162 58.4372L39.0862 60.0414L39.0334 61.8301L39.0217 62.4293L39.0026 64.5982L39.0012 65.1386L39 66.5007V115L52.2231 107.392V83.437L52.669 83.8018L53.0685 84.1015L53.7611 84.5777L53.8086 84.6084L53.8446 84.6328L54.7094 85.1769L55.677 85.7416L56.376 86.1269L57.4104 86.6634L58.3586 87.1217L59.4174 87.598L59.9712 87.8323L61.0261 88.2497L62.0798 88.6313L63.1308 88.9731L64.1754 89.2791L64.8114 89.4481L65.8522 89.6926L66.8866 89.9013L67.7257 90.0434L68.7575 90.1881L69.7879 90.2957L70.7863 90.3649L71.8181 90.4033L72.8525 90.4058L72.9193 90.4044L73.9588 90.3674L75.006 90.2957L76.0557 90.1869L77.1184 90.0397L78.1926 89.8552L78.2877 89.836L79.3722 89.6095L80.467 89.3432L81.581 89.0333L82.7155 88.6811L82.7772 88.6607L83.9298 88.2638L85.117 87.8156L86.2464 87.3547L87.5018 86.8055L88.8202 86.1909L89.7594 85.7288L91.205 84.9874L92.8008 84.1296L93.2982 83.8543L95.2101 82.7775L95.665 82.5177L96.8483 81.8378L139 57.5882L125.777 49.9816H125.777Z" fill="#FF3B00"/>
</g>
</svg>
