<svg width="32" height="32" viewBox="0 0 32 32" fill="none" xmlns="http://www.w3.org/2000/svg">
<mask id="mask0_436_995" style="mask-type:alpha" maskUnits="userSpaceOnUse" x="0" y="0" width="32" height="32">
<rect width="32" height="32" fill="#802DDC"/>
</mask>
<g mask="url(#mask0_436_995)">
<path d="M29.1834 8.13643C29.1245 8.0592 29.0506 7.99408 28.966 7.94479C28.8813 7.89549 28.7875 7.86299 28.69 7.84915C28.5925 7.8353 28.4932 7.84037 28.3977 7.86408C28.3022 7.88779 28.2124 7.92967 28.1334 7.98732L16.0359 16.8167C15.9927 16.8484 15.94 16.8655 15.8859 16.8655C15.8318 16.8655 15.7792 16.8484 15.7359 16.8167L3.87592 7.94821C3.79762 7.88979 3.70832 7.84701 3.61311 7.82234C3.51791 7.79766 3.41866 7.79156 3.32105 7.80438C3.22343 7.81721 3.12935 7.84871 3.04418 7.89708C2.95901 7.94546 2.88443 8.00976 2.82467 8.08632C2.76492 8.16288 2.72118 8.2502 2.69594 8.34329C2.6707 8.43638 2.66446 8.53342 2.67758 8.62887C2.69069 8.72432 2.72291 8.81631 2.77238 8.89958C2.82186 8.98286 2.88762 9.05579 2.96592 9.11421L12.2909 16.0882L3.06842 22.8838C2.98897 22.9417 2.92197 23.0144 2.87125 23.0976C2.82053 23.1809 2.78707 23.2731 2.77279 23.369C2.75852 23.4649 2.7637 23.5626 2.78804 23.6566C2.81239 23.7505 2.85542 23.8389 2.91467 23.9165C2.97393 23.9942 3.04826 24.0597 3.13341 24.1093C3.21857 24.1589 3.31287 24.1916 3.41096 24.2056C3.50904 24.2196 3.60897 24.2145 3.70505 24.1907C3.80113 24.1669 3.89147 24.1248 3.97092 24.0669L13.5284 17.0122L14.8234 17.99C15.1254 18.216 15.4944 18.3397 15.8747 18.3423C16.2549 18.345 16.6257 18.2264 16.9309 18.0047L18.2909 17.0122L27.9609 24.0669C28.0399 24.1245 28.1297 24.1663 28.2252 24.19C28.3207 24.2137 28.42 24.2188 28.5175 24.2049C28.615 24.1911 28.7088 24.1586 28.7934 24.1093C28.8781 24.0601 28.952 23.995 29.0109 23.9178C29.0699 23.8406 29.1127 23.7528 29.1369 23.6594C29.1611 23.566 29.1663 23.4689 29.1521 23.3735C29.138 23.2782 29.1047 23.1865 29.0544 23.1038C29.004 23.021 28.9374 22.9487 28.8584 22.8911L19.5434 16.0858L29.0309 9.15577C29.1883 9.03958 29.2925 8.86747 29.3211 8.67669C29.3496 8.48592 29.3002 8.29183 29.1834 8.13643Z" fill="#802DDC"/>
<path d="M28.25 5H3.75C2.75544 5 1.80161 5.38631 1.09835 6.07394C0.395088 6.76158 0 7.69421 0 8.66667L0 23.3333C0 24.3058 0.395088 25.2384 1.09835 25.9261C1.80161 26.6137 2.75544 27 3.75 27H28.25C29.2446 27 30.1984 26.6137 30.9017 25.9261C31.6049 25.2384 32 24.3058 32 23.3333V8.66667C32 7.69421 31.6049 6.76158 30.9017 6.07394C30.1984 5.38631 29.2446 5 28.25 5ZM30.5 23.3333C30.5 23.9168 30.2629 24.4764 29.841 24.889C29.419 25.3015 28.8467 25.5333 28.25 25.5333H3.75C3.15326 25.5333 2.58097 25.3015 2.15901 24.889C1.73705 24.4764 1.5 23.9168 1.5 23.3333V8.66667C1.5 8.08319 1.73705 7.52361 2.15901 7.11103C2.58097 6.69845 3.15326 6.46667 3.75 6.46667H28.25C28.8467 6.46667 29.419 6.69845 29.841 7.11103C30.2629 7.52361 30.5 8.08319 30.5 8.66667V23.3333Z" fill="#802DDC"/>
</g>
</svg>
